<?xml version="1.0" encoding="utf-8"?>
<!-- Generator: Adobe Illustrator 26.0.0, SVG Export Plug-In . SVG Version: 6.00 Build 0)  -->
<svg version="1.1" xmlns="http://www.w3.org/2000/svg" xmlns:xlink="http://www.w3.org/1999/xlink" x="0px" y="0px"
	 viewBox="0 0 500 500" style="enable-background:new 0 0 500 500;" xml:space="preserve">
<style type="text/css">
	.st0{fill:#FFFFFF;}
	.st1{fill:#C1BFD4;}
	.st2{fill:#D4D2E9;}
	.st3{fill:#E3E1F5;}
	.st4{fill:#D3D1E8;}
	.st5{fill:#002E5C;}
	.st6{fill:none;stroke:#C1BFD4;stroke-miterlimit:10;}
	.st7{fill:#5987E5;}
	.st8{fill:#006BDD;}
	.st9{fill:#E2E5F2;}
	.st10{fill:#C1BFD4;stroke:#E3E1F5;stroke-width:1.4173;stroke-miterlimit:10;}
	.st11{fill:#F5CEB5;}
	.st12{fill:#E4BBA2;}
	.st13{fill:#F67406;}
	.st14{clip-path:url(#SVGID_00000095313578472905742780000004535134598675137190_);}
	.st15{fill:#F7931E;}
	.st16{fill:#F77406;}
	.st17{fill:none;}
	.st18{clip-path:url(#SVGID_00000012433479168051747030000006706460479963347861_);}
	.st19{clip-path:url(#SVGID_00000041977987433995844230000004600598125944634812_);}
	.st20{fill:#356FE5;}
	.st21{fill:#401A4C;}
	.st22{fill:none;stroke:#B3B3D4;stroke-width:0.5669;stroke-linecap:round;stroke-linejoin:round;stroke-miterlimit:10;}
	.st23{fill:#E2B9A0;}
	.st24{fill:#E29EA0;}
	.st25{fill:#E4A0A2;}
	.st26{clip-path:url(#SVGID_00000106138348031653101750000015245943487325215911_);fill:#E4A0A2;}
	.st27{fill:#D4A78E;}
	.st28{fill:#76768B;}
	.st29{fill:#B3B3D4;}
	.st30{fill:#F57406;}
	.st31{fill:#E28386;}
	.st32{clip-path:url(#SVGID_00000087390670615957633230000003833374804525445555_);fill:#E28386;}
	.st33{fill:#F59C06;}
	.st34{fill:none;stroke:#263238;stroke-width:0.4252;stroke-miterlimit:10;}
	.st35{fill:none;stroke:#F57406;stroke-width:0.5669;stroke-linecap:round;stroke-linejoin:round;stroke-miterlimit:10;}
	.st36{fill:#80A9FF;}
</style>
<g id="BACKGROUND">
	<g>
		<rect class="st0" width="500" height="500"/>
		<g>
			<polygon class="st1" points="61,166.1 57.4,166.1 12.8,437.1 16.4,437.1 			"/>
			<g>
				<polygon class="st1" points="82.8,437.1 79.4,437.1 61.1,304.9 64.5,304.9 				"/>
				<polygon class="st1" points="146.5,437.1 143,437.1 124.7,304.9 128.1,304.9 				"/>
			</g>
			<polygon class="st2" points="153.4,315.6 45.2,315.6 18.6,160.8 126.7,160.8 			"/>
			<polygon class="st3" points="152.4,310.3 44.3,310.3 19.5,166.1 127.7,166.1 			"/>
			<polygon class="st4" points="65.8,298.8 60.9,298.8 44.3,202.1 49.2,202.1 			"/>
			<polygon class="st4" points="75.3,298.8 70.4,298.8 55.9,214.8 60.9,214.8 			"/>
			<polygon class="st4" points="84.8,298.8 79.9,298.8 68.7,234 73.7,234 			"/>
			<polygon class="st4" points="94.3,298.8 89.4,298.8 79.7,242.5 84.6,242.5 			"/>
			<polygon class="st4" points="103.8,298.8 98.9,298.8 82.2,202.1 87.2,202.1 			"/>
			<polygon class="st4" points="113.3,298.8 108.4,298.8 93.9,214.8 98.9,214.8 			"/>
			<polygon class="st4" points="122.8,298.8 117.9,298.8 106.7,234 111.6,234 			"/>
			<polygon class="st4" points="132.3,298.8 127.3,298.8 117.7,242.5 122.6,242.5 			"/>
			<g>
				<path class="st5" d="M34.4,176l10.6,61.4l10.6,61.4l-0.1-0.1l81.7,0.1l-81.7,0.1c-0.1,0-0.1,0-0.1-0.1l-10.5-61.4L34.4,176z"/>
			</g>
			<polygon class="st1" points="111.3,176.8 43.4,176.8 42.8,173.2 110.7,173.2 			"/>
			<polygon class="st1" points="102.7,182.2 53.8,182.2 53.4,179.6 102.3,179.6 			"/>
			<polyline class="st6" points="153.4,315.6 45.2,315.6 18.6,160.8 			"/>
		</g>
		<g>
			<path class="st7" d="M413.1,338.8c-20.4-1.7-8.5-25.1-5-28.6c3.5-3.5-3.6-22.9,10.7-26.6c14.3-3.7,12-36.6,27.3-31.8
				c17.3,5.4-6.6,28.6-3.5,35.3c5.8,12.5-11.5,12.1-7.2,28.3C440.4,334,435.4,340.7,413.1,338.8z"/>
			<g>
				<path class="st5" d="M445.4,258.2c-2.7,3.8-4.9,8-7.1,12.2c-1.1,2.1-2.1,4.2-3.1,6.3l-1.5,3.2l-1.4,3.2
					c-3.7,8.6-6.9,17.5-9.7,26.5l-2,6.8c-0.3,1.1-0.7,2.3-1,3.4l-0.9,3.4l-1.7,6.8l-1.5,6.9l-0.8,3.4l-0.6,3.5l-1.3,6.9
					c-0.8,4.6-1.4,9.3-2.1,14c0.7-4.7,1.2-9.3,2-14l1.2-7l0.6-3.5l0.7-3.5l1.5-6.9l1.7-6.9l0.9-3.4c0.3-1.1,0.6-2.3,1-3.4l2-6.8
					c2.8-9,6-17.8,9.8-26.5C436,274.5,440.1,266,445.4,258.2z"/>
			</g>
			<g>
				<path class="st5" d="M414.6,290c1.8,2.1,3.4,4.3,5.1,6.5c1.6,2.2,3.3,4.4,4.9,6.7c-1.8-2.1-3.4-4.3-5.1-6.5
					C417.9,294.5,416.2,292.3,414.6,290z"/>
			</g>
			<g>
				<path class="st5" d="M429.8,290c1.5-0.8,3-1.5,4.5-2.2c1.5-0.7,3.1-1.3,4.7-1.9c-1.5,0.8-3,1.5-4.5,2.2
					C432.9,288.8,431.4,289.4,429.8,290z"/>
			</g>
			<g>
				<path class="st5" d="M434.4,263.3c0.8,1.1,1.4,2.2,2.1,3.3c0.7,1.1,1.3,2.3,1.9,3.5c-0.8-1.1-1.4-2.2-2.1-3.3
					C435.6,265.7,435,264.5,434.4,263.3z"/>
			</g>
			<g>
				<path class="st5" d="M418.2,325.2c2.4-0.9,4.8-1.6,7.2-2.4c2.4-0.7,4.8-1.5,7.3-2.1c-2.4,0.9-4.8,1.6-7.2,2.4
					C423.1,323.8,420.7,324.5,418.2,325.2z"/>
			</g>
		</g>
		<path class="st8" d="M427.5,340.5c-1.7,0.7-3.5,1.6-4.9,2.9c-1.7,1.4-3.2,3-4.4,4.9c-1.2,1.8-2.2,3.8-2.9,5.9
			c-0.7,2.1-1.2,4.2-1.3,6.4c0.5-2.1,1.3-4.1,2.1-6c0.8-1.9,1.8-3.8,3-5.6c3.8-5.8,26.8-2.7,27.7-8.4
			C447.2,338.4,437.7,335.6,427.5,340.5z M418.6,338.4c-1.4,2.2-2.6,4.5-3.4,7c-0.8,2.5-1.4,5-1.7,7.5c-0.3,2.6-0.4,5.1-0.2,7.7
			c0.1-1.3,0.2-2.5,0.4-3.8c0.2-1.3,0.4-2.5,0.6-3.8c0.5-2.5,0.9-5,1.9-7.3c4.2-9.1,26.2-8.3,26.3-15.5c0-2.8-10.1-4.8-19.5,3.5
			C421.3,335,419.8,336.6,418.6,338.4z M412.3,358.9c-0.4-2.9-0.9-5.8-1-8.8c-0.5-12.1,19.3-28.2,13.5-34.6
			c-2.2-2.4-12.2,3.7-14,17.8c-0.5,2.6-0.8,5.3-0.9,8c-0.1,3,0,6,0.2,8.9c0.3,3,0.7,5.9,1.3,8.8c0.6,2.9,1.3,4.9,2.3,7.7
			c-0.3-1.5-0.5-2-0.8-3.4C412.8,361.8,412.5,360.3,412.3,358.9z M408.7,349.9c-0.8-2.9-1.8-5.7-2.9-8.4c-1-2.5-2.3-4.8-3.7-7.1
			c-6.7-12.5-18.2-14.7-19.4-11.7c-3.1,8,22.2,16.9,25,27.5c0.7,2.8,1.5,5.7,2.2,8.6c0.3,1.4,0.6,2.9,0.9,4.3
			c0.3,1.4,0.6,2.9,0.8,4.4c-0.1-3-0.5-5.9-1-8.8C410.2,355.7,409.5,352.8,408.7,349.9z M429.6,348.5c-1.7,0.3-3.3,0.8-4.8,1.6
			c-1.6,0.9-3.1,2.1-4.4,3.3c-2.6,2.6-4.6,5.7-5.9,9.2c1-1.5,2-3,3.1-4.4c1.1-1.4,2.3-2.7,3.5-4c4.1-4.4,19.1,2.8,21.4-1.7
			C443.5,350.8,437.9,346.5,429.6,348.5z"/>
		<polygon class="st9" points="421.3,436.5 403.1,436.5 396.5,359.6 427.9,359.6 		"/>
		<g>
			<g>
				<path class="st1" d="M193.7,120.8h-24.8V53.1c2-5.4,7.3-9,12.9-8.7c5.3,0.2,10,3.7,11.9,8.7C193.7,79.4,193.7,94.4,193.7,120.8z
					"/>
				<rect x="168.9" y="53.1" class="st3" width="24.8" height="67.7"/>
				<line class="st10" x1="181.8" y1="44.3" x2="181.8" y2="0"/>
			</g>
			<g>
				<path class="st1" d="M262.4,120.8h-24.8V53.1c2-5.4,7.3-9,12.9-8.7c5.3,0.2,10,3.7,11.9,8.7C262.4,79.4,262.4,94.4,262.4,120.8z
					"/>
				<rect x="237.6" y="53.1" class="st3" width="24.8" height="67.7"/>
				<line class="st10" x1="250.5" y1="44.3" x2="250.5" y2="0"/>
			</g>
			<g>
				<path class="st1" d="M331.1,120.8h-24.8V53.1c2-5.4,7.3-9,12.9-8.7c5.3,0.2,10,3.7,11.9,8.7C331.1,79.4,331.1,94.4,331.1,120.8z
					"/>
				<rect x="306.3" y="53.1" class="st3" width="24.8" height="67.7"/>
				<line class="st10" x1="319.3" y1="44.3" x2="319.3" y2="0"/>
			</g>
		</g>
	</g>
</g>
<g id="OBJECTS">
	<g>
		<polygon class="st1" points="126.9,331.3 112,437.1 109.4,437.1 120.5,331.3 		"/>
		<g>
			<g>
				<g>
					<path class="st5" d="M234.3,372.8h12.9c6.6,0,12-6.6,12-14.6v-22.6c0-1.9-1.5-3.4-3.4-3.4c-1.9,0-3.4,1.5-3.4,3.4v22.6
						c0,4.3-2.4,7.8-5.2,7.8h-12.9c-1.9,0-3.4,1.5-3.4,3.4C230.9,371.2,232.4,372.8,234.3,372.8z"/>
				</g>
				<path class="st5" d="M228.4,303.8c3.6-16.8,12.1-14.1,20.6-14.1c8.5,0.1,17-2.7,20.6,14.1c3.9,16.7-4.5,48.4-20.6,48.4
					C232.9,352.2,224.5,320.5,228.4,303.8z"/>
				<path class="st7" d="M225,303.8c3.6-16.8,12.1-14.1,20.6-14.1c8.5,0.1,17-2.7,20.6,14.1c3.9,16.7-4.5,48.4-20.6,48.4
					C229.6,352.2,221.1,320.5,225,303.8z"/>
				<g>
					<path class="st5" d="M242,289.7c5.4,0,11.9-1.2,16,3.4c1.3,1.5,2.3,3.4,3.1,5.2c0.4,1.1,1,2.7,1.2,3.9
						c4.5,13.9-2.2,49.5-20.3,50.1c18-0.9,24.4-36.1,20.1-50.1c-0.2-1.2-0.8-2.7-1.2-3.9c-0.8-1.9-1.7-3.7-3-5.2
						C253.9,288.6,247.4,289.7,242,289.7L242,289.7z"/>
				</g>
				<g>
					<path class="st7" d="M201.7,374.5h47.4c2,0,3.6-1.6,3.6-3.6v-4.1c0-2-1.6-3.6-3.6-3.6h-47.4c-2,0-3.6,1.6-3.6,3.6v4.1
						C198.1,372.8,199.7,374.5,201.7,374.5z"/>
					<path class="st5" d="M201.4,375.6h48c1.8,0,3.3-1.5,3.3-3.3v-1.7h-54.7v1.7C198.1,374.1,199.6,375.6,201.4,375.6z"/>
					
						<rect x="219.8" y="373.1" transform="matrix(-1 -1.224647e-16 1.224647e-16 -1 450.8085 757.2719)" class="st5" width="11.1" height="11.1"/>
					
						<rect x="222.4" y="380.9" transform="matrix(-1 -1.224647e-16 1.224647e-16 -1 450.8086 797.8597)" class="st5" width="6.1" height="36"/>
					<g>
						<g>
							<g>
								<path class="st5" d="M224.4,414.6v5.2c3.6,0.5,8.8,1.7,14.4,4.5c4.8,2.4,8.4,5.2,10.9,7.4c0.3,0.2,0.8,0.4,1.4,0.6
									c0.5,0.1,1,0.2,1.5,0.2h1.5c0.5,0,0.8-0.7,0.4-1c-2.8-3.4-6.8-7.5-12.3-11.5c-5.1-3.7-10-6.2-13.9-7.8
									C226.9,413,225.7,413.8,224.4,414.6z"/>
								<path class="st5" d="M250.6,435.1c0,1.1,0.9,2,2,2c1.1,0,2-0.9,2-2c0-1.1-0.9-2-2-2C251.5,433.1,250.6,434,250.6,435.1z"/>
								
									<rect x="252" y="431.4" transform="matrix(-1 -1.224647e-16 1.224647e-16 -1 505.2886 865.2966)" class="st5" width="1.3" height="2.5"/>
							</g>
							<g>
								<path class="st5" d="M226.4,414.6v5.2c-3.6,0.5-8.8,1.7-14.4,4.5c-4.8,2.4-8.4,5.2-10.9,7.4c-0.3,0.2-0.8,0.4-1.4,0.6
									c-0.5,0.1-1,0.2-1.5,0.2h-1.5c-0.5,0-0.8-0.7-0.4-1c2.8-3.4,6.8-7.5,12.3-11.5c5.1-3.7,10-6.2,13.9-7.8
									C223.9,413,225.1,413.8,226.4,414.6z"/>
								<path class="st5" d="M200.2,435.1c0,1.1-0.9,2-2,2c-1.1,0-2-0.9-2-2c0-1.1,0.9-2,2-2C199.3,433.1,200.2,434,200.2,435.1z"/>
								<rect x="197.5" y="431.4" class="st5" width="1.3" height="2.5"/>
							</g>
						</g>
						<g>
							<path class="st5" d="M220.6,414.6v5.2c2.1,0.5,5.1,1.7,8.4,4.5c2.8,2.4,4.9,5.2,6.4,7.4c0.2,0.2,0.5,0.4,0.8,0.6
								c0.3,0.1,0.6,0.2,0.9,0.2h0.9c0.3,0,0.5-0.7,0.2-1c-1.6-3.4-4-7.5-7.2-11.5c-3-3.7-5.9-6.2-8.1-7.8
								C222.1,413,221.3,413.8,220.6,414.6z"/>
							<path class="st5" d="M234.3,435.1c0,1.1,0.9,2,2,2c1.1,0,2-0.9,2-2c0-1.1-0.9-2-2-2C235.2,433.1,234.3,434,234.3,435.1z"/>
							
								<rect x="235.7" y="431.4" transform="matrix(-1 -1.224647e-16 1.224647e-16 -1 472.6542 865.2966)" class="st5" width="1.3" height="2.5"/>
						</g>
						
							<rect x="219.5" y="412.2" transform="matrix(-1 -1.224647e-16 1.224647e-16 -1 450.8086 831.9044)" class="st5" width="11.9" height="7.6"/>
					</g>
				</g>
			</g>
			<g>
				<path class="st7" d="M235.3,246.9c4.5,4.5,4.6,8.1,2.9,9.8c-1.7,1.7,4.9,8,3.1,11.2c-1.8,3.3-3.9,8.7,0,12.6
					c3.9,3.9,3.5,12-0.6,15.3c-4.2,3.3-26.5,21-38.6,11.5c-12.1-9.5,1.7-20.6,3.1-22C206.6,284,235.3,246.9,235.3,246.9z"/>
				<polygon class="st11" points="274.5,260 274.4,248.4 265.8,252.6 266.2,259.1 				"/>
				<path class="st11" d="M272.6,254.3c2.8-0.9,7.4-9.5,6.3-10.2c-1.2-0.7-3.4,3.5-3.4,3.5s3.6-5.5,1.9-6c-1.6-0.4-3.8,5.1-3.8,5.1
					s2.7-6.1,0.9-6.6c-1.8-0.5-3.1,6.8-3.1,6.8s1.9-7.1,0.4-7.5c-1.8-0.5-3.7,7.7-3.7,7.7s0.7-3.9-0.9-4c-1.5-0.1-2.8,7.7-1.4,10"/>
				<g>
					<path class="st5" d="M272.3,243.8c-0.1,0.9-0.4,1.8-0.9,2.6C271.5,245.4,271.8,244.6,272.3,243.8L272.3,243.8z"/>
				</g>
				<g>
					<path class="st5" d="M274.6,244.3c-0.1,0.9-0.4,1.8-0.9,2.6C273.8,245.9,274.1,245.1,274.6,244.3L274.6,244.3z"/>
				</g>
				<g>
					<path class="st5" d="M276.9,245.4c-0.3,0.9-0.7,1.7-1.3,2.3C275.8,246.8,276.3,246.1,276.9,245.4L276.9,245.4z"/>
				</g>
				<path class="st12" d="M174.6,323.2l-10,0.9c0,0-6.4,0.6-7.9,2.7c-1.5,2-1,3.2,4.1,3.1c5.1-0.1,22.1-0.4,22.1-0.4"/>
				<path class="st13" d="M209.6,288l-10.5,26.4l-29.4,4.5l1.6,10.6c0,0,28.5,0.5,35.7-3.2c7.2-3.7,12.4-24,12.4-24L209.6,288z"/>
				<g>
					<defs>
						<path id="SVGID_1_" d="M209.6,288l-10.5,26.4l-29.4,4.5l1.6,10.6c0,0,28.5,0.5,35.7-3.2c7.2-3.7,12.4-24,12.4-24L209.6,288z"
							/>
					</defs>
					<clipPath id="SVGID_00000045607483181196938540000006556299972643048874_">
						<use xlink:href="#SVGID_1_"  style="overflow:visible;"/>
					</clipPath>
					<g style="clip-path:url(#SVGID_00000045607483181196938540000006556299972643048874_);">
						<path class="st0" d="M199.9,299.2c3,0.1,6.2-0.1,9,1.2c3,2,6.5,4.9,9.5,7c0,0-1.1,6.2-1.1,6.2c-2.5-2.8-5.7-6.6-9.9-6.3
							c-1.4,0.1-2.5,1-3.9,1.2c-1.8,0.4-3.8-0.3-4.8-1.9c0,0,0.1,0,0.1,0l-2.6,3.5c0,0,0-0.1,0-0.1c1.7,0.5,3.4,1.2,4.9,2.2
							c1.5,1,2.7,2.4,3.9,3.7c2.4,2.7,5,5.4,7.2,8.1c0,0-4.8,5.4-4.8,5.4c0,0.1-0.1,0-0.2,0c-1.5-2.2-3.1-4.6-3.5-7.3
							c0-1-0.4-1.7-1-2.3c-2.4-2.5-6-4.4-8.8-6c0,0-3,0-3,0s0.1-0.2,0.1-0.2c1.2,1.1,2.3,2.3,3.3,3.5c0.9,1.3,2.2,2.6,2.2,4.3
							c-0.8,3.1,0.8,6.8,1,9.5c0,0,0,0,0,0l-7.7,0.5c-0.1,0-0.1-0.1-0.1-0.1c0.3-0.9,1.6-5,1.9-5.8c0.5-1.2,0.1-2.3-0.4-3.4
							c-1.1-2.9-3.4-6-4.8-8.3c0,0-3.6,1.6-3.6,1.6s0-0.1,0-0.1c1.1,1.6,2.2,3.3,2.8,5.3c0.1,0.5,0.2,1,0,1.5
							c-1,1.2-0.8,2.8-0.6,4.2c0.3,1.7,0.6,3.4,1.4,4.9c0,0,0.1,0.1,0.1,0.2c-1.8,0.8-4.5,0.6-6.5,0.7c0.8-1.9,1.5-4.2,1.4-6.5
							c-0.4-3.7-2.6-6.9-4.5-10c0.1,0-3.2,0.7-3.2,0.7c0,0,0,0,0,0c1.5,1.8,3.3,3.9,3.2,6.4c-0.6,3.1-0.3,6.2,0,9.3
							c-0.3-3.1-0.6-6.3,0-9.3c0-2.5-1.7-4.6-3.3-6.3c0,0,0,0,0,0c0,0,3.3-0.8,3.3-0.7c1.9,3.1,4.2,6.3,4.6,10
							c0,2.1-0.5,4.8-1.5,6.4c2.1-0.1,4.2-0.1,6.3-0.6c0.1-0.1,0.2-0.1,0.1-0.2c-0.8-1.5-1.2-3.3-1.5-5c-0.2-1.4-0.4-3.1,0.6-4.3
							c0.2-0.4,0.1-1,0-1.4c-0.5-1.9-1.6-3.6-2.7-5.2c0,0,0-0.1,0-0.1c0,0,3.6-1.6,3.6-1.6c2,2.5,3.7,5.5,5,8.4
							c0.4,1.1,0.9,2.4,0.4,3.6c0,0-0.4,1.2-0.4,1.2l-1.5,4.6l-0.1-0.1l7.7-0.5l-0.1,0.2c-0.7-2.7-1.4-5.5-1.3-8.3
							c0-0.4,0.2-0.8,0.2-1.2c0-1.5-1.2-2.9-2.1-4.1c-1-1.2-2.1-2.4-3.3-3.5c-0.1-0.1,0-0.2,0.1-0.2c0,0,3,0,3,0
							c3.4,1.9,7.5,3.9,9.8,7.2c0.2,0.4,0.2,0.9,0.3,1.4c0.4,2.6,2,5,3.4,7.2c0,0-0.2,0-0.2,0s4.8-5.4,4.8-5.4
							c-2.2-2.1-4.8-5.4-7.1-7.9c-1.2-1.3-2.4-2.7-3.9-3.7c-1.5-1.1-3.3-1.6-4.9-2.3c0,0,2.6-3.5,2.6-3.5c0,0,0.1,0,0.1,0
							c0.9,1.6,2.9,2.2,4.7,1.9c1.4-0.1,2.5-1.1,3.9-1.2c2.3-0.2,4.4,1.1,6.2,2.5c1.3,1.1,2.9,2.6,3.7,3.9c0,0,1.1-6.3,1.1-6.2
							c0,0-4.2-3.1-4.2-3.1c-2.1-1.5-4-3.5-6.5-4.4C205.2,299.3,202.5,299.2,199.9,299.2L199.9,299.2z"/>
					</g>
				</g>
				<g>
					<path class="st15" d="M231.4,428.7l0.8,6.4h-25c0,0,1.7-2.7,8.6-4c0.3-2.2,0.3-2.2,0.3-2.2L231.4,428.7z"/>
					
						<rect x="207.2" y="435.1" transform="matrix(-1 -1.224647e-16 1.224647e-16 -1 439.4862 872.2071)" class="st16" width="25.2" height="2"/>
					<g>
						<path class="st5" d="M231.8,432.1c-1.3,0.4-2.7,1.3-2.8,2.8C228.7,433.2,230.4,432.1,231.8,432.1L231.8,432.1z"/>
					</g>
					<g>
						<path class="st5" d="M218.1,428.5c0.1,1.4,0.1,2.7,0.1,4.1c0,0.1-0.1,0.1-0.1,0.1c-1.1,0-2.2,0.1-3.2,0.2
							c-1.1,0.1-2.1,0.3-3.2,0.6c2-0.9,4.3-1.1,6.4-1c0,0-0.1,0.1-0.1,0.1C218,431.2,218.1,429.8,218.1,428.5L218.1,428.5z"/>
					</g>
					<g>
						<path class="st5" d="M211,432.3c0.8,0.6,1.3,1.5,1.2,2.5C211.8,433.9,211.4,433.1,211,432.3L211,432.3z"/>
					</g>
				</g>
				<g>
					<path class="st15" d="M183.1,428.7l0.2,6.4h-25c0,0,2-2.7,9-4c0.5-2.2,0.5-2.2,0.5-2.2L183.1,428.7z"/>
					<polygon class="st16" points="158.1,437.1 183.3,437.1 183.5,435.1 158.3,435.1 					"/>
					<g>
						<path class="st5" d="M183.3,432.1c-1.4,0.4-2.8,1.3-3.1,2.8C180.1,433.2,181.8,432.1,183.3,432.1L183.3,432.1z"/>
					</g>
					<g>
						<path class="st5" d="M169.9,428.5c-0.1,1.4-0.1,2.7-0.3,4.1c0,0.1-0.1,0.1-0.1,0.1c-2.2,0-4.4,0.2-6.5,0.8
							c2-0.9,4.3-1.1,6.5-1c0,0-0.1,0.1-0.1,0.1C169.5,431.2,169.7,429.8,169.9,428.5L169.9,428.5z"/>
					</g>
					<g>
						<path class="st5" d="M162.4,432.3c0.7,0.6,1.1,1.6,1,2.5C163.1,433.9,162.8,433.1,162.4,432.3L162.4,432.3z"/>
					</g>
				</g>
				<path class="st8" d="M174.7,354.5l-9.9,74.7h19.2l11.6-65h6.1c10.4,0,19.6-8.4,20.7-18.8l0.4-4h-34.2
					C181.5,341.4,175.2,347.4,174.7,354.5z"/>
				<g>
					<path class="st5" d="M165.4,420.4c6.5-0.2,13-0.2,19.5,0C178.4,420.6,171.9,420.6,165.4,420.4L165.4,420.4z"/>
				</g>
				<g>
					<path class="st5" d="M179.3,420.4c2.5-13.5,7.7-40.5,10.3-53.9c0.4-3.6,2.9-7,6.2-8.4c1.6-0.8,3.5-1,5.3-0.9l5.4,0
						c3.6,0,7.1-2.1,8.8-5.2c1-1.5,1.3-3.4,1.4-5.1c0,0,0.6-5.4,0.6-5.4s-0.5,5.4-0.5,5.4c-0.1,1.8-0.4,3.6-1.4,5.2
						c-1.8,3.2-5.3,5.4-8.9,5.3c0,0-5.4,0-5.4,0c-1.8-0.1-3.6,0.1-5.2,0.9c-3.3,1.5-5.7,4.7-6,8.3C187.2,380,181.9,407,179.3,420.4
						L179.3,420.4z"/>
				</g>
				<path class="st8" d="M202.9,354.5l10.2,74.7h19.2l-7.5-65h6.1c10.4,0,18.8-8.4,18.8-18.8v-4h-34.2
					C208.3,341.4,202.6,347.4,202.9,354.5z"/>
				<g>
					<path class="st5" d="M215.5,341.4c-8.2,0.2-13.5,7.4-12.5,15.3c0.1,2.5,0.1,5,0.2,7.5c-0.1-2.5-0.3-5-0.4-7.5
						C201.7,348.7,207.2,341.3,215.5,341.4L215.5,341.4z"/>
				</g>
				<g>
					<path class="st17" d="M203.2,364.2"/>
				</g>
				<g>
					<path class="st5" d="M212.8,420.4c6.5-0.2,13-0.2,19.5,0C225.8,420.6,219.3,420.6,212.8,420.4L212.8,420.4z"/>
				</g>
				<g>
					<path class="st5" d="M226.6,420.4c-1.9-13.4-5.8-40.4-7.7-53.8c0-1.8,0.5-3.6,1.5-5.1c1.9-3.1,5.6-4.6,9.2-4.3c0,0,5.3,0,5.3,0
						c3.5,0.1,6.9-2.1,8.4-5.3c0.8-1.6,0.9-3.4,0.9-5.1c0,0,0-5.3,0-5.3l0,5.3c0.1,1.8,0,3.6-0.8,5.2c-1.4,3.3-4.9,5.5-8.5,5.4
						c0,0-5.3,0-5.3,0c-1.8-0.1-3.5,0.1-5.1,0.9c-3.2,1.4-5.4,4.8-5.3,8.3C221.1,379.9,224.8,407,226.6,420.4L226.6,420.4z"/>
				</g>
				<path class="st13" d="M210.6,341.4c3.1-7.3,3.3-13.1,2.9-17.2c-0.3-2.6-3.1-9-4.4-15.9c-0.7-4,3.6-9,3.7-12.9
					c0.1-7.5-2.5-12.6,3.4-11.9h15.3c7.3,0,13.5,5.3,14.5,12.5l6.8,45.3H210.6z"/>
				<g>
					<path class="st5" d="M234.9,284c-2.3,5.8-9.7,5-14.4,2.8C225.3,288.5,232.3,289.5,234.9,284L234.9,284z"/>
				</g>
				<g>
					<defs>
						<path id="SVGID_00000033357195968701235490000015056654896111616654_" d="M210.6,341.4c1.5-3.9,3.2-9.9,2.9-17.2
							c-0.3-7.9-3.8-9.9-4-15.5c-0.2-5.6,3-14.9,13.4-25.3c2.9,0,5.8,0,8.7,0.1c7.3,0,13.5,5.3,14.5,12.5l6.8,45.3H210.6z"/>
					</defs>
					<clipPath id="SVGID_00000031906262674803069840000010082030317742342060_">
						<use xlink:href="#SVGID_00000033357195968701235490000015056654896111616654_"  style="overflow:visible;"/>
					</clipPath>
					<g style="clip-path:url(#SVGID_00000031906262674803069840000010082030317742342060_);">
						<path class="st0" d="M255.2,333.1c-6,0.3-12.1,0.6-18.1,0.2c-1.5-0.1-3-0.2-4.4-0.8c-0.5-0.2-0.8-0.7-1.3-0.8
							c-2-0.3-3.8,1.1-5.6,1.9c-2.2,1.1-4.6,2.4-7.2,2c-1.4-0.4-3-0.6-4.5-0.7c-2-0.1-4.2,0.3-6,0.5c0,0,2.2-4.2,2.2-4.2
							c2.8-0.8,5.6-2,7.9-3.9c0.8-0.6,1.4-1.5,2.5-1.6c1-0.2,2,0,3,0.1c5.5,0.7,15.2,5.9,19.9,1.6c1.4-1.4,3.3-2.4,5.3-2.6
							c2-0.1,4,0.5,5.6,1.6c0,0-0.1,0.1-0.1,0.1s-1.7-7.9-1.7-7.9c-3.1,0.3-7.3,1.1-10.1,3.3c-1.4,1.1-2.7,2.6-4.6,2.9
							c-5.4,1.3-11-0.1-16.2-1.7c-1.8-0.4-3.4-1.7-5.2-1c-1.7,0.5-3.2,1.7-4.4,3c-0.1,0.1-0.2,0-0.2,0c0,0-1.9-6.5-1.9-6.5
							c0-0.1,0-0.1,0.1-0.2c1.7-0.5,3.3-0.9,5-1.2c1.7-0.3,3.4-0.5,5.2-0.5c1.7,0,3.4,0.7,5.1,1c5,0.9,10.4,0.3,15-2.2
							c1.9-0.9,7.7-5.5,9.4-3.2c0,0-0.2,0.1-0.2,0.1s-0.7-3.6-0.7-3.6c-3-0.7-7.2-1.9-10.8-2c-1.8-0.1-3.8-0.1-5.1,1.3
							c-4.1,2.3-13.9,2.5-17.3-1.1c-1.6-3.3-5.5-3-8.4-1.6c-0.1,0-0.1,0-0.1-0.1c0,0,2.2-7,2.2-7c0,0,0.1-0.1,0.1-0.1
							c1.8,0.5,3.9,1.3,5.7,0.5c1.2-1.1,2.8-1.3,4.3-1.5c3.5-0.4,7.1-0.1,10.5,0.4c6,1.3,10,1.5,14.3-3.5c1.1-1.3,2.1-3,2.8-4.4
							c0,0-4.6-7-4.6-7c-1,3.3-2.9,6.9-5.5,9.4c-2.9,3-7.1,1.1-10.5,0.4c-6.9-1.5-15.1-3.8-21.4,0.5c6.4-4.3,14.5-2,21.4-0.5
							c3.4,0.7,7.6,2.5,10.4-0.4c2.7-2.5,4.2-6.1,5.6-9.5c0,0,0,0,0,0c0,0,4.6,7,4.6,7c-0.7,1.6-1.7,3.1-2.8,4.5
							c-4.4,5.1-8.4,4.9-14.4,3.6c-4.3-0.6-8.8-1-13.1,0.1c-1,0.2-1.4,1-2.3,1.2c-1.8,0.3-3.5-0.2-5.2-0.7c0,0,0.1,0,0.1,0
							s-2.1,7-2.1,7l-0.1-0.1c1.7-0.8,3.6-1.3,5.4-0.9c1.4,0.2,2.5,1.4,3.2,2.6c3.3,3.5,13,3.3,17,1.1c1.4-1.4,3.4-1.5,5.3-1.4
							c3.7,0.3,7.5,1,11,2.2c0,0,0.7,3.6,0.7,3.6c0,0.1-0.2,0.2-0.2,0.1c-1.8-1.7-7.2,2.5-9,3.4c-4.6,2.5-10,3.1-15.1,2.2
							c-1.7-0.3-3.3-1.1-5-1c-1.7,0-3.4,0.2-5.1,0.5c-1.7,0.3-3.4,0.7-5,1.2l0.1-0.2l1.9,6.5c0,0-0.2,0-0.2,0c1.8-1.8,4.5-4.1,7.3-3
							c0.8,0.4,1.7,0.7,2.5,0.9c5.4,1.5,13.5,3.8,18.5,0.5c3.2-3.2,8-5,12.5-4.9c0,0,1.7,7.9,1.7,7.9c0,0.1-0.1,0.1-0.1,0.1
							c-1.6-1.1-3.6-1.8-5.5-1.6c-2,0.1-3.8,1.1-5.2,2.5c-0.7,0.7-1.6,1.2-2.6,1.5c-6.9,1.4-13.5-3.5-20.4-3.1
							c-1,0.1-1.7,0.9-2.4,1.6c-2.3,1.9-5.1,3.1-7.9,3.9c0.1-0.1-2.2,4.2-2.2,4.2c1.7-0.6,4-0.6,6-0.6c1.5,0,3.1,0.3,4.5,0.7
							c2.5,0.4,4.9-0.9,7.1-2c1.8-0.8,3.6-2.2,5.6-1.9c0.5,0.1,0.8,0.6,1.3,0.8c1.4,0.6,2.9,0.7,4.4,0.8
							C243.2,333.7,249.2,333.4,255.2,333.1L255.2,333.1z"/>
					</g>
				</g>
				<g>
					<path class="st5" d="M167.7,327.6c-1.8,0.2-3.8,0.2-5.4,0.8c-0.2,0.1-0.4,0.2-0.3,0.4c0,0.8,0.9,0.8,1.5,0.8
						c0.9,0.1,1.9,0.1,2.8,0.1c-0.9,0.1-1.9,0.1-2.8,0.1c-0.6,0-1.8-0.2-1.7-1c-0.1-0.3,0.2-0.5,0.5-0.7
						C163.9,327.5,165.8,327.6,167.7,327.6L167.7,327.6z"/>
				</g>
				<g>
					<path class="st5" d="M164.6,326.2c-1.9,0.6-6.1,1.2-6.4,3.5C158.1,327.2,162.7,326.4,164.6,326.2L164.6,326.2z"/>
				</g>
				<g>
					<path class="st5" d="M163.3,325.8c-1.9,0.6-6.1,1.2-6.4,3.5C156.8,326.8,161.3,326,163.3,325.8L163.3,325.8z"/>
				</g>
				<g>
					<path class="st5" d="M160.6,325.8c-0.7,0.3-1.8,0.7-2.5,1c-0.8,0.4-1.7,0.6-2.2,1.4c0.1-0.5,0.5-0.8,0.8-1
						C158,326.4,159.3,326,160.6,325.8L160.6,325.8z"/>
				</g>
				<g>
					<path class="st5" d="M213.5,288c0.5,3.1,0,6.3-0.8,9.3c-1.5,5.1-4.7,10.4-2.5,15.7c2,3.4,2.8,7.3,3.3,11.2
						c-0.2-1.5-0.5-3.1-0.9-4.6c-0.5-2.3-1.3-4.5-2.6-6.5c-2.3-5.4,0.9-10.8,2.5-15.9C213.3,294.3,213.9,291.1,213.5,288L213.5,288z
						"/>
				</g>
				<g>
					<path class="st5" d="M172.5,318.7c0.3,2.7,1,8.2,1.3,10.9C173,326,172.5,322.3,172.5,318.7L172.5,318.7z"/>
				</g>
				<path class="st13" d="M234.9,284l28.5,2.8l1-29.3l12.7,0.2c0,0,3.5,37.3-3.4,41.7c-6.8,4.4-27.1,4.8-27.1,4.8
					c-2.2-2.1-5.2-5.3-7.7-9.8C236.8,290.3,235.6,286.7,234.9,284z"/>
				<g>
					<path class="st0" d="M264.5,260.3c4.3-0.4,8.7-0.5,13-0.1C273.2,260.1,268.9,260.2,264.5,260.3L264.5,260.3z"/>
				</g>
				<g>
					<path class="st5" d="M247.3,304.1c-3.6-0.4-6.6-3.4-7.4-7C241,300.5,243.7,303.3,247.3,304.1L247.3,304.1z"/>
				</g>
				<g>
					<path class="st5" d="M277.5,261.5c-4.2,1.1-8.9,1.8-13,0C268.7,262.9,273.3,262.2,277.5,261.5L277.5,261.5z"/>
				</g>
				<g>
					<path class="st0" d="M263.5,286.7c0.2,1.4,0.2,2.9,0.1,4.3C263.3,289.6,263.3,288.2,263.5,286.7L263.5,286.7z"/>
				</g>
				<g>
					<defs>
						<path id="SVGID_00000120542067278420526090000013769580304870565540_" d="M234.9,284l28.5,2.8l1-29.3l12.7,0.2
							c0,0,3.5,37.3-3.4,41.7c-6.8,4.4-27.1,4.8-27.1,4.8L234.9,284z"/>
					</defs>
					<clipPath id="SVGID_00000158027749749664814920000005527811144302310823_">
						<use xlink:href="#SVGID_00000120542067278420526090000013769580304870565540_"  style="overflow:visible;"/>
					</clipPath>
					<g style="clip-path:url(#SVGID_00000158027749749664814920000005527811144302310823_);">
						<path class="st0" d="M278.9,266.2c-2.9-0.1-6.1,0-8.4,2.1c-2.8,1.2-5.9-0.4-8.5-1.5c0,0,0,0,0,0l1.5,6.7
							c2.3,0,5.1,0.6,6.9,2.3c0.5,0.4,1,0.7,1.6,0.7c1.9,0.1,3.6-0.8,5.5-1.1c5.9-0.7,2.8,9.5,2,12.6c0,0.1-0.1,0.1-0.1,0
							c-1.2-1.2-2.5-2.2-4-3.1c-0.8-0.5-1.7-0.8-2.6-0.8c-0.8,0-1.3,0.3-1.9,0.8c-2.7,2.1-6.8-1.3-9-3.1c0,0,0.1,0,0.1,0l-2,2l0-0.1
							c0.4,1.8,1.3,3.5,2.6,4.9c1.3,1.4,3.4,1.7,4.6,3.2c2.5,2.8,4,6.4,5.2,9.9c0,0.1,0,0.1-0.1,0.2l-6.4,2.4c-0.1,0-0.2,0-0.2-0.1
							c-0.4-1.7-1.3-3.2-2.4-4.6c-2.6-2.5-3.8-5.9-4.6-9.4c-0.3-1.5-0.9-3.9-0.9-5.1c0,0-3.5-1.3-3.5-1.3l0.1,0
							c-1.5,2.4-0.8,5.3,0.3,7.7c0.7,2.6,0.5,5.4,0.3,8.1c-0.2,1.8-0.3,3.7-0.8,5.4c0,0-4,0.2-4,0.2c-0.6-2.7-1-5.8-2.9-8.1
							c-2.6-2.5-0.4-10.9,0.5-13.9c0,0-4.4-0.8-4.4-0.8c-2.2,2.2-4.3,5.8-3,9.1c0.9,2,7.2,12.5,8.4,14.7c-1.2-2.2-7.5-12.6-8.4-14.7
							c-1.2-3.3,0.7-6.9,3-9.2c0,0,4.4,0.8,4.4,0.8c-0.4,1.8-0.9,3.8-1.2,5.7c-0.3,2.6-1.2,6.1,0.8,8.2c1.7,2.1,2.7,5.6,2.8,8
							c0,0,4-0.2,4-0.2c0.6-4.9,1.7-11-0.7-15.9c-0.4-1.7-0.4-4,0.7-5.4c0,0,3.6,1.3,3.6,1.3c0,0,0.1,0.1,0.1,0.1
							c0.7,4.3,1.5,8.7,3.8,12.4c1.7,2,3.6,4,4.2,6.6c0,0-0.2-0.1-0.2-0.1l6.4-2.4l-0.1,0.2c-1.2-3.5-2.6-7.1-5.1-9.9
							c-1.2-1.5-3.3-1.7-4.6-3.2c-1.3-1.4-2.2-3.1-2.6-5c0,0,0-0.1,0-0.1l2-2c0,0,0.1,0,0.1,0c1.2,1.1,2.6,2.1,4.1,2.9
							c1.4,0.7,3.3,1.4,4.6,0.2c0.3-0.2,0.6-0.6,1.1-0.7c1.2-0.5,2.6,0.1,3.7,0.6c1.5,0.8,2.8,1.9,4,3.1c0,0-0.1,0-0.1,0
							c0.7-2.8,3.1-10.6-0.1-12.3c-2.9-1.2-6.3,2.4-9,0.1c-1.8-1.8-4.5-2.2-6.9-2.3c0,0-1.4-6.7-1.4-6.7c0,0,0,0,0,0
							c2.6,1.1,5.7,2.7,8.4,1.6C272.7,266.2,276,266.1,278.9,266.2L278.9,266.2z"/>
					</g>
				</g>
			</g>
			<path class="st7" d="M235.6,355.8h28.2c1.2,0,2.2-1,2.2-2.2v-2.4c0-1.2-1-2.2-2.2-2.2h-28.2c-1.2,0-2.2,1-2.2,2.2v2.4
				C233.5,354.9,234.4,355.8,235.6,355.8z"/>
			<path class="st5" d="M235.5,356.5H264c1.1,0,2-0.9,2-2v-1h-32.5v1C233.5,355.6,234.4,356.5,235.5,356.5z"/>
			
				<rect x="239.5" y="355" transform="matrix(-1 -1.224647e-16 1.224647e-16 -1 489.202 727.7714)" class="st5" width="10.2" height="17.8"/>
			<g>
				
					<rect x="175.8" y="327.2" transform="matrix(-1 -1.224647e-16 1.224647e-16 -1 417.7711 656.977)" class="st7" width="66.2" height="2.5"/>
				
					<rect x="175.8" y="327.2" transform="matrix(-1 -1.224647e-16 1.224647e-16 -1 384.6494 656.977)" class="st20" width="33.1" height="2.5"/>
				<polygon class="st20" points="167.3,299 200.4,299 208.9,327.2 175.8,327.2 				"/>
				<polygon class="st7" points="203.1,297.1 200.4,299 208.9,327.2 211.5,327.2 				"/>
				<g>
					<path class="st21" d="M211.5,327.2c-11.9,0.2-23.8,0.2-35.8,0C187.7,327,199.6,327,211.5,327.2L211.5,327.2z"/>
				</g>
			</g>
			<g>
				<polygon class="st1" points="266.2,331.3 281.1,437.1 283.7,437.1 272.6,331.3 				"/>
				
					<rect x="104.5" y="331.3" transform="matrix(-1 -1.224647e-16 1.224647e-16 -1 373.7241 674.7072)" class="st3" width="164.8" height="12.2"/>
				
					<rect x="252" y="331.3" transform="matrix(-1 -1.224647e-16 1.224647e-16 -1 521.2278 674.7072)" class="st3" width="17.3" height="12.2"/>
				<polygon class="st1" points="110.4,331.3 95.5,437.1 92.9,437.1 104,331.3 				"/>
				<polygon class="st1" points="249.7,331.3 264.6,437.1 267.2,437.1 256.1,331.3 				"/>
				
					<rect x="98.1" y="329.5" transform="matrix(-1 -1.224647e-16 1.224647e-16 -1 375.4211 662.5209)" class="st1" width="179.3" height="3.6"/>
			</g>
		</g>
		<path class="st2" d="M301.7,248.1h-68.2v-63.2c0-2.8,2.2-5,5-5h63.2V248.1z"/>
		<path class="st2" d="M299.2,172h-23.1c-1.4,0-2.5,1.1-2.5,2.5v5.5h28v-5.5C301.7,173.1,300.6,172,299.2,172z"/>
		<path class="st3" d="M236.3,245.3v-57.5c0-2.8,2.2-5,5-5h57.5v62.5H236.3z"/>
		<g>
			<rect x="277.1" y="174.4" class="st22" width="4.6" height="4.1"/>
			<line class="st22" x1="294.1" y1="178.5" x2="298.8" y2="174.4"/>
			<line class="st22" x1="294.1" y1="174.4" x2="298.8" y2="178.5"/>
			<line class="st22" x1="285.6" y1="178.5" x2="290.3" y2="178.5"/>
		</g>
		<path class="st11" d="M272.1,250.2c-0.5-4.1-3.8-3.1-3.8-3.1l0.2-1.9c0.4-2.4-1.6-4.5-2.6-0.1c-1,4.3-0.6,7.2,0.8,8.6"/>
		<g>
			<path class="st5" d="M268.4,245.2l-0.1,1.9l-0.1-0.1c2.2-0.8,3.9,1,3.9,3.2c-0.1-0.5-0.2-0.9-0.4-1.3c-0.5-1.4-2-2-3.4-1.7
				c0,0-0.1,0-0.1-0.1C268.2,247.1,268.4,245.2,268.4,245.2L268.4,245.2z"/>
		</g>
		
			<rect x="251.1" y="189.5" transform="matrix(-1 -1.224647e-16 1.224647e-16 -1 535.1192 427.393)" class="st0" width="32.8" height="48.5"/>
		
			<rect x="255.8" y="200.7" transform="matrix(-1 -1.224647e-16 1.224647e-16 -1 535.1192 402.91)" class="st2" width="23.4" height="1.5"/>
		
			<rect x="255.8" y="203.7" transform="matrix(-1 -1.224647e-16 1.224647e-16 -1 535.1192 408.91)" class="st2" width="23.4" height="1.5"/>
		
			<rect x="255.8" y="206.7" transform="matrix(-1 -1.224647e-16 1.224647e-16 -1 535.1192 414.91)" class="st2" width="23.4" height="1.5"/>
		
			<rect x="255.8" y="209.7" transform="matrix(-1 -1.224647e-16 1.224647e-16 -1 535.1192 420.91)" class="st2" width="23.4" height="1.5"/>
		
			<rect x="255.8" y="212.7" transform="matrix(-1 -1.224647e-16 1.224647e-16 -1 535.1192 426.91)" class="st2" width="23.4" height="1.5"/>
		
			<rect x="255.8" y="215.7" transform="matrix(-1 -1.224647e-16 1.224647e-16 -1 535.1192 432.91)" class="st2" width="23.4" height="1.5"/>
		
			<rect x="255.8" y="218.7" transform="matrix(-1 -1.224647e-16 1.224647e-16 -1 535.1192 438.91)" class="st2" width="23.4" height="1.5"/>
		
			<rect x="255.8" y="221.7" transform="matrix(-1 -1.224647e-16 1.224647e-16 -1 535.1192 444.91)" class="st2" width="23.4" height="1.5"/>
		
			<rect x="255.8" y="224.7" transform="matrix(-1 -1.224647e-16 1.224647e-16 -1 535.1192 450.91)" class="st2" width="23.4" height="1.5"/>
		
			<rect x="255.8" y="227.7" transform="matrix(-1 -1.224647e-16 1.224647e-16 -1 535.1192 456.91)" class="st2" width="23.4" height="1.5"/>
		
			<rect x="255.8" y="230.7" transform="matrix(-1 -1.224647e-16 1.224647e-16 -1 535.1192 462.91)" class="st2" width="23.4" height="1.5"/>
	</g>
	<g>
		<g>
			<g>
				<path class="st23" d="M158.4,222.7c4.2-3.1,8.1-5.4,8.7-4.9c0.6,0.5-2.1,3.4-2.1,3.4s1.9-1.3,2.6-0.6c0.8,0.7-0.8,2.2-0.8,2.2
					s1.7-1.1,2.3-0.1c0.6,0.9-0.7,2.4-0.7,2.4s1-0.2,1.4,0.5c0.4,0.6-2.2,3.3-4,5.2c-5.9,6.4-14.5,7.5-14.5-0.2"/>
				<path class="st8" d="M115.4,232.8l-10.2-3.3c-6.7-1.7-13-0.3-17.8,4.8c-1,1.1-1.5,12.2,23.3,14.9
					C115,244.4,116.1,239.8,115.4,232.8z"/>
				<path class="st23" d="M154,227.7l-21.5,10.6l-17.1-5.5c0.7,7.1-0.4,11.6-4.7,16.5c0,0,0.1,0,0.1,0c5.4,0.8,19.5,5.2,24.5,3
					c9.1-4.1,28.4-19.8,28.4-19.8L154,227.7z"/>
				<g>
					<path class="st5" d="M162.8,223c1-1,2.1-1.9,3.1-2.8C165.2,221.4,164,222.3,162.8,223L162.8,223z"/>
				</g>
				<g>
					<path class="st5" d="M164.8,224.5c0.9-0.8,1.7-1.7,2.7-2.5C166.9,223.1,166,224,164.8,224.5L164.8,224.5z"/>
				</g>
				<g>
					<path class="st5" d="M167,226.3c0.6-0.8,1.3-1.5,2.1-2.2C168.7,225,167.9,225.7,167,226.3L167,226.3z"/>
				</g>
				<g>
					<path class="st5" d="M112.2,232.3c2.2,6-0.8,12.5-4.8,17C111.1,244.6,114,238.3,112.2,232.3L112.2,232.3z"/>
				</g>
			</g>
		</g>
		<path class="st23" d="M150.2,260.7c2.4-8.9,11.9-9.5,12.3-8.5c0.3,1-3.3,2.8-3.3,2.8"/>
		<path class="st2" d="M227.5,227h-68.2v-63.2c0-2.8,2.2-5,5-5h63.2V227z"/>
		<path class="st2" d="M225.1,150.8H202c-1.4,0-2.5,1.1-2.5,2.5v5.5h28v-5.5C227.5,151.9,226.4,150.8,225.1,150.8z"/>
		<path class="st3" d="M162.2,224.1v-57.5c0-2.8,2.2-5,5-5h57.5v62.5H162.2z"/>
		<g>
			<path class="st13" d="M71.2,426.8l-1,7.8h29.1c0,0-2-3.4-10.1-4.8c-0.3-2.7-0.3-2.7-0.3-2.7L71.2,426.8z"/>
			<rect x="70" y="434.6" class="st2" width="29.3" height="2.5"/>
			<g>
				<path class="st0" d="M70.6,430.9c2.4,0.1,10.1,0.4,10.4,3.4C80.5,431.7,73,431.4,70.6,430.9L70.6,430.9z"/>
			</g>
			<g>
				<path class="st0" d="M96.6,432.3c0.8,0.4,1.4,1.3,1.4,2.3C97.6,433.7,97.1,433,96.6,432.3L96.6,432.3z"/>
			</g>
		</g>
		<g>
			<path class="st13" d="M119.8,426.6l-1,7.8h29.1c0,0-2-3.4-10.1-4.8c-0.3-2.7-0.3-2.7-0.3-2.7L119.8,426.6z"/>
			<rect x="118.6" y="434.4" class="st2" width="29.3" height="2.5"/>
			<g>
				<path class="st0" d="M119.2,430.7c2.4,0.1,10.1,0.4,10.4,3.4C129.1,431.5,121.6,431.1,119.2,430.7L119.2,430.7z"/>
			</g>
			<g>
				<path class="st0" d="M145.2,432.1c0.8,0.4,1.4,1.3,1.4,2.3C146.2,433.6,145.7,432.8,145.2,432.1L145.2,432.1z"/>
			</g>
		</g>
		<path class="st5" d="M85.1,280.5L68.2,429H95l9.7-116l12.7,48.5l-0.2,66.6l24-0.5l-0.6-55.4c-0.1-9.6-1.3-19.2-3.5-36.2
			l-13.2-55.5H85.1z"/>
		<g>
			<path class="st8" d="M68.8,418.4c8.7-0.2,17.5-0.2,26.2,0C86.2,418.6,77.5,418.6,68.8,418.4L68.8,418.4z"/>
		</g>
		<g>
			<path class="st8" d="M117.4,417.9c7.9-0.2,15.8-0.2,23.7,0C133.2,418.1,125.3,418.1,117.4,417.9L117.4,417.9z"/>
		</g>
		<g>
			<path class="st8" d="M86.7,312.4c9.7,0.1,19.4,0.4,29.1,0.8C106,313.1,96.4,312.8,86.7,312.4L86.7,312.4z"/>
		</g>
		
			<rect x="94.9" y="206.9" transform="matrix(0.9997 -2.591838e-02 2.591838e-02 0.9997 -5.6363 2.7018)" class="st23" width="13.1" height="23.7"/>
		<polygon class="st5" points="105.5,221.2 107.9,217.8 108.1,223.1 		"/>
		<path class="st23" d="M112.9,211.6c1,4.2-1.6,8.2-5.8,9.2l-4.4,1c-4.2,1-8.3-1.5-9.3-5.7l-3.4-14.7c-1-4.2,1.6-8.4,5.8-9.3l4.4-1
			c4.2-1,8.3,1.7,9.3,5.8L112.9,211.6z"/>
		<path class="st8" d="M104.5,202.5c0,0,2,5.8,0,7.7c-2,2-2.8-2-2.8-2s-0.6,9.2-2.3,11c-1.7,1.7-3.4,0-3.4,0s-0.6,3.3-2.3,3.2
			c-1.1-0.1-2.4-4.3-2.4-4.3s0.6,2.2-1.2,2.7c-2.3,0.6-2.7-9.7-2.7-9.7s-0.5,2.2-1.7,1s-3.2-8.4,0-15c-4.2,0.8-1.8-5.5,5.5-6.8
			c1.6-1.6,14.3-7.9,20-1c3.2,3.9-2.5,6.5-4,6.5C107.4,199,108.8,202.5,104.5,202.5z"/>
		<g>
			<path class="st5" d="M88.1,201.7c0.1,1.8-0.8,11.9,2.5,10.4C87.1,213.8,87.8,203.6,88.1,201.7L88.1,201.7z"/>
		</g>
		<g>
			<path class="st5" d="M92,202.3c0.1,2.3,0.2,5.5,0.4,7.7c0.2,1.9,0.4,3.9,1,5.7c0.2,0.6,0.5,1.2,1,1.6c-1.1-0.7-1.4-2.2-1.7-3.4
				C91.9,210.1,91.9,206.1,92,202.3L92,202.3z"/>
		</g>
		<g>
			<path class="st5" d="M96.2,207c0.7,2.6,0.7,5.4,1.7,7.8C96.6,212.5,96.5,209.6,96.2,207L96.2,207z"/>
		</g>
		<g>
			<path class="st5" d="M100.1,201.3c0.4,0.6,0.9,2.9,1.9,2.2C100.9,204.6,100.1,202.1,100.1,201.3L100.1,201.3z"/>
		</g>
		<g>
			<path class="st5" d="M99.1,196.1c2.5-1,6.1-2.3,8.3,0C104.9,194.2,101.7,195.4,99.1,196.1L99.1,196.1z"/>
		</g>
		<g>
			<path class="st8" d="M92,194.1c3.2-3.2,8-5,12.5-4.4C99.9,189.5,95.5,191.2,92,194.1L92,194.1z"/>
		</g>
		<g>
			<path class="st23" d="M103.8,209.2c0.4,1.8-0.3,3.5-1.6,3.8c-1.3,0.3-2.7-0.9-3.1-2.7c-0.4-1.8,0.3-3.5,1.6-3.8
				C102,206.3,103.4,207.5,103.8,209.2z"/>
			<g>
				<path class="st5" d="M102.5,211.7c-0.9-0.5-1-2.3,0.1-2.7c0,0-0.1,0.2-0.1,0.2c-0.2-0.4-0.4-0.8-0.8-1.1
					c-0.4-0.2-0.9-0.3-1.2,0.1c0.1-0.2,0.3-0.4,0.6-0.4c0.8-0.1,1.4,0.7,1.7,1.3c0,0.1,0,0.1-0.1,0.2
					C101.8,209.6,101.8,211.1,102.5,211.7L102.5,211.7z"/>
			</g>
		</g>
		<path class="st13" d="M94.8,226.1c0.1,0,0.2,0,0.2,0c6.3,3.1,10.3,0.8,14.1-0.5c2.6-0.5,10.5,2,10.5,2l8.2,67.8L81,295.1l0.6-54.3
			C81.5,234,88,226.7,94.8,226.1z"/>
		<path class="st5" d="M114.5,240.8c0,0,6,50.3,12.5,47.8c-0.7-10.9-1.5-14.5-1.5-14.5L114.5,240.8z"/>
		<g>
			<path class="st5" d="M81.1,292.4c15.6,0,31.1,0.2,46.7,0.5C112.2,292.9,96.6,292.7,81.1,292.4L81.1,292.4z"/>
		</g>
		<g>
			<defs>
				<path id="SVGID_00000167390570581316352710000004815903996729527224_" d="M112.9,211.6c1,4.2-1.6,8.2-5.8,9.2l-4.4,1
					c-4.2,1-8.3-1.5-9.3-5.7l-3.4-14.7c-1-4.2,1.6-8.4,5.8-9.3l4.4-1c4.2-1,8.3,1.7,9.3,5.8L112.9,211.6z"/>
			</defs>
			<clipPath id="SVGID_00000103229822530022897750000011849961227937346739_">
				<use xlink:href="#SVGID_00000167390570581316352710000004815903996729527224_"  style="overflow:visible;"/>
			</clipPath>
		</g>
		<g>
			<path class="st8" d="M120.7,293.8c4.9,23,10.1,45.9,12.7,69.3c0.5,14.2-0.1,40.3,0,54.8c-0.2-14.6,0.2-40.5-0.2-54.8
				C130.5,339.8,125.3,316.8,120.7,293.8L120.7,293.8z"/>
		</g>
		<g>
			<path class="st8" d="M99.3,312.8C96,348,92.5,383.2,88.8,418.4C92.1,383.2,95.6,348,99.3,312.8L99.3,312.8z"/>
		</g>
		<g>
			<path class="st5" d="M93.4,226.2c5.3,2.3,12,3.2,16.7-0.8C105.6,229.8,98.5,228.9,93.4,226.2L93.4,226.2z"/>
		</g>
		<path class="st5" d="M109.3,203.1c0.2,0.8,0.1,1.5-0.2,1.5c-0.3,0.1-0.7-0.5-0.8-1.3s-0.1-1.5,0.2-1.5
			C108.7,201.8,109.1,202.3,109.3,203.1z"/>
		<path class="st23" d="M110.9,203.2c0,0,0.6,3.2,1.6,3.8c1,0.6,0.1,2.5-1.2,1.9C110,208.4,110.9,203.2,110.9,203.2z"/>
		<path class="st0" d="M112,212.7c-0.7,1.7-1.7-0.6-1.7-0.6L112,212.7z"/>
		<path class="st24" d="M107.1,209.9c0.1,0.6,1,0.9,2,0.7c0.9-0.2,1.6-0.9,1.4-1.5c-0.1-0.6-1-0.9-2-0.7S106.9,209.3,107.1,209.9z"
			/>
		<g>
			<g>
				<path class="st23" d="M159.2,255c5-1.9,9.4-3.1,9.9-2.4c0.5,0.7-3,2.7-3,2.7s2.2-0.8,2.8,0.1c0.6,0.9-1.3,1.9-1.3,1.9
					s2-0.6,2.3,0.5c0.3,1-1.3,2.1-1.3,2.1s1.1,0.1,1.3,0.8c0.3,0.7-3.1,2.6-5.3,3.9c-7.5,4.6-16.4,3.4-14.4-4"/>
				<path class="st13" d="M135.1,256.9l-2.7-13.6c-1.4-7-5.6-15.5-12.7-15.9c-4.6-0.3-8.5,4.8-1.6,32
					C124.5,261.5,129.1,260.6,135.1,256.9z"/>
				<path class="st23" d="M153.4,258.6l-16.6,6.7l-1.7-8.4c-6.1,3.6-10.7,4.5-17,2.6c0,0,0,0.1,0,0.1c1.6,5.3,4.2,26,9.8,26.5
					c13.5,1.4,33.9-20.3,33.9-20.3L153.4,258.6z"/>
				<g>
					<path class="st5" d="M163.5,256.4c1.2-0.7,2.6-1.3,3.9-1.9C166.2,255.5,164.9,256.1,163.5,256.4L163.5,256.4z"/>
				</g>
				<g>
					<path class="st5" d="M165.1,258.5c1.1-0.6,2.2-1.2,3.3-1.7C167.5,257.6,166.3,258.3,165.1,258.5L165.1,258.5z"/>
				</g>
				<g>
					<path class="st5" d="M166.8,260.7c0.8-0.6,1.7-1.1,2.6-1.5C168.8,260,167.8,260.5,166.8,260.7L166.8,260.7z"/>
				</g>
				<g>
					<path class="st5" d="M134.2,253.8c-4.2,4.7-11.4,4.4-16.9,2.6C122.9,257.8,129.8,258.2,134.2,253.8L134.2,253.8z"/>
				</g>
			</g>
			<g>
				<path class="st5" d="M118.2,259.5c-1.2-4.7-6-22.6-2.9-26c-0.4,0.4-0.6,0.9-0.7,1.5c-0.5,3.8,0.3,7.7,0.9,11.5
					C116.1,250.3,117.3,255.7,118.2,259.5L118.2,259.5z"/>
			</g>
			<g>
				<path class="st5" d="M135.7,259.5c0.9,3.8,1.7,7.6,2.2,11.5C136.9,267.2,136.2,263.4,135.7,259.5L135.7,259.5z"/>
			</g>
		</g>
		<path class="st23" d="M151.4,230.5c0.1-9.2,8.8-12.3,9.4-11.4c0.6,0.9-2.4,3.5-2.4,3.5"/>
		<g>
			<path class="st5" d="M159.2,222c-0.6,0.7-1.3,1.5-2,2.2l0-0.2c1.6,1.1,2.1,3.3,1,4.8c0.3-0.8,0.5-1.7,0.3-2.5
				c-0.2-0.8-0.8-1.6-1.4-2.1c-0.1,0-0.1-0.1,0-0.2C157.7,223.3,158.4,222.7,159.2,222L159.2,222z"/>
		</g>
		<g>
			<path class="st5" d="M156.2,255.7c1.5-0.6,3.1-1,4.7-1.3C159.4,255,157.8,255.4,156.2,255.7L156.2,255.7z"/>
		</g>
		<circle class="st8" cx="192" cy="192" r="17.1"/>
		<polygon class="st0" points="201.3,192.9 185.7,183.8 185.7,201.9 		"/>
		<g>
			<rect x="203" y="153.2" class="st22" width="4.6" height="4.1"/>
			<line class="st22" x1="220" y1="157.3" x2="224.7" y2="153.2"/>
			<line class="st22" x1="220" y1="153.2" x2="224.7" y2="157.3"/>
			<line class="st22" x1="211.5" y1="157.3" x2="216.2" y2="157.3"/>
		</g>
	</g>
	<g>
		<path class="st12" d="M233.2,284.2c-0.8,0.7-2,1.6-3.6,2.1c-4.8,1.5-9-1.7-9.5-2.1c0-7.9,0-15.8,0-23.7h13.1V284.2z"/>
		<polygon class="st5" points="229.1,277 233.2,275.7 233.2,280.6 		"/>
		<path class="st12" d="M238.7,267.6c1,4.2-1.6,8.2-5.8,9.2l-4.4,1c-4.2,1-8.3-1.5-9.3-5.7l-3.5-14.7c-1-4.2,1.6-8.4,5.7-9.3l4.4-1
			c4.2-1,8.3,1.6,9.3,5.8L238.7,267.6z"/>
		<path class="st12" d="M220,268.5c0.4,1.8-0.7,3.6-2.6,4c-1.8,0.4-3.7-0.7-4.1-2.4c-0.4-1.8,0.7-3.6,2.6-4
			C217.8,265.7,219.6,266.7,220,268.5z"/>
		<g>
			<path class="st5" d="M234.2,264.4c0.3-0.4,0.8-0.3,1,0.1c0.6,1,0.2,2.5-1,2.8c0.6-0.4,0.9-1.1,0.9-1.7
				C235.2,265.1,235,263.9,234.2,264.4L234.2,264.4z"/>
		</g>
		<g>
			<path class="st5" d="M223.4,259c0.2-0.8,1.3-1.3,2-0.8C224.6,258.1,223.9,258.4,223.4,259L223.4,259z"/>
		</g>
		<g>
			<path class="st5" d="M233.1,256.7c0.2-0.8,1.3-1.3,2-0.8C234.3,255.8,233.6,256.1,233.1,256.7L233.1,256.7z"/>
		</g>
		<g>
			<path class="st5" d="M226.7,261.8c0.1,0.6,0,1.1-0.3,1.2c-0.3,0.1-0.7-0.3-0.8-0.9c-0.1-0.6,0-1.1,0.3-1.2
				C226.2,260.8,226.6,261.2,226.7,261.8z"/>
		</g>
		<g>
			<path class="st5" d="M236.1,259.6c0.1,0.6,0,1.1-0.3,1.2c-0.3,0.1-0.7-0.3-0.8-0.9c-0.1-0.6,0-1.1,0.3-1.2
				C235.6,258.6,235.9,259,236.1,259.6z"/>
		</g>
		<g>
			<path class="st5" d="M229.6,269.7c1.3,0.8,2.8,0.7,4.1-0.1C232.7,270.7,230.7,270.8,229.6,269.7L229.6,269.7z"/>
		</g>
		<g>
			<path class="st5" d="M216.9,271.4c-1.3-0.5-0.8-2.5,0.4-2.8c0,0-0.1,0.2-0.1,0.2c-0.2-0.5-0.6-0.9-1.2-1.1
				c-0.5-0.2-1.2-0.1-1.6,0.3c0.4-0.5,1.1-0.6,1.7-0.5c0.6,0.1,1.1,0.6,1.4,1.2c0,0.1,0,0.2-0.1,0.2
				C216.4,269.1,215.8,270.8,216.9,271.4L216.9,271.4z"/>
		</g>
		<path class="st25" d="M228.4,267.5c0.1,0.6-0.5,1.3-1.4,1.5c-0.9,0.2-1.8-0.1-2-0.7c-0.1-0.6,0.5-1.3,1.4-1.5
			S228.3,266.9,228.4,267.5z"/>
		<g>
			<defs>
				<path id="SVGID_00000106113486907743173880000001327209392115090576_" d="M238.7,267.6c1,4.2-1.6,8.2-5.8,9.2l-4.4,1
					c-4.2,1-8.3-1.5-9.3-5.7l-3.5-14.7c-1-4.2,1.6-8.4,5.7-9.3l4.4-1c4.2-1,8.3,1.6,9.3,5.8L238.7,267.6z"/>
			</defs>
			<clipPath id="SVGID_00000133489467630530542660000013103525493717638320_">
				<use xlink:href="#SVGID_00000106113486907743173880000001327209392115090576_"  style="overflow:visible;"/>
			</clipPath>
			<path style="clip-path:url(#SVGID_00000133489467630530542660000013103525493717638320_);fill:#E4A0A2;" d="M239.5,264.9
				c0.1,0.6-0.5,1.3-1.4,1.5s-1.8-0.1-2-0.7c-0.1-0.6,0.5-1.3,1.4-1.5S239.4,264.3,239.5,264.9z"/>
		</g>
		<path class="st7" d="M228.5,252.5c0,0-2.9,3.5-7.4,5c-4.5,1.6,2.6,9.6,0.5,11.6c-2,2,3.9,14.6,1.4,17.1
			c-2.5,2.5-0.5,14.9-7.1,14.9c-6.6,0-7.8-6.4-12-2.2c0-6.1-4.8-7.6-1.6-10.8c3.2-3.2-4.8-6.8,1.5-13.1c6.3-6.3-2.5-14.7,1.4-18
			c6.9-5.8,2.2-12.1,7.8-14.3c2.2-0.9,4.7-0.9,6.8-0.8c2.6,0.2,5.3,0.2,8,0c0.6-0.1,1.3-0.1,2-0.1c3.9,0,15,7.2,8.4,14.8
			C234.5,256.7,228.5,252.5,228.5,252.5z"/>
		<g>
			<path class="st5" d="M221.5,248.4c-3.1,1.9-6,5.5-4.9,9.3c0.4,1.8,2,3.2,2.5,5.1c1.1,3.8-1.4,7.4-1.6,11.1
				c0.6,4.6,1.1,9.5-0.5,14c-0.3,0.9-0.7,1.8-1.4,2.5c0.6-0.7,1-1.6,1.3-2.5c1.5-4.6,1-9.4,0.4-14c0.1-3.8,2.6-7.3,1.6-11.1
				c-0.4-1.8-2-3.2-2.4-5.1C215.2,253.9,218.3,250.3,221.5,248.4L221.5,248.4z"/>
		</g>
		<g>
			<path class="st5" d="M219.4,245.6c-2.1,2.6-5.5,3.6-7.2,6.5c-3,4.7,0.4,9.4,2.9,13.4c1,1.8,0.4,3.2-1,4.4c-1.8,2-4.8,6-2.7,8.6
				c-2.2-2.6,0.8-6.6,2.6-8.7c1.3-1.2,2-2.5,1-4.2c-2.7-4-6-8.7-2.9-13.6C213.7,249.1,217.2,248.1,219.4,245.6L219.4,245.6z"/>
		</g>
		<g>
			<path class="st5" d="M208.9,267.3c-0.1,3,0.6,6.4-1,9.1c-0.3,0.4-0.7,0.7-0.9,1.2c-0.9,3.2,0.2,7.3-0.7,10.7
				c-0.3,1-0.7,2-1.1,2.9c0.4-1,0.7-1.9,1-2.9c0.5-2.9,0.1-6.3,0.2-9.2c0-1.1,0.6-2.1,1.3-2.8C209.3,273.7,208.7,270.3,208.9,267.3
				L208.9,267.3z"/>
		</g>
		<g>
			<path class="st5" d="M225.6,245c1,1.4,3,1.5,4.5,1.7C228.6,246.9,226.4,246.7,225.6,245L225.6,245z"/>
		</g>
		<g>
			<path class="st5" d="M232.7,243.9c-2.7-0.3-5.4-1.4-8,0C227.1,242.1,230.1,243.2,232.7,243.9L232.7,243.9z"/>
		</g>
		<g>
			<path class="st5" d="M217.1,244.8c-1.9,0.1-4,0.6-5,2.3C212.7,245.1,215.2,244.5,217.1,244.8L217.1,244.8z"/>
		</g>
	</g>
	<g>
		<path class="st5" d="M339.6,195.2c0,0-1,5.4,0.3,6.7c1.3,1.3-2.8,7.7,3,6.1c5.8-1.6,1.8-13.4,1.8-13.4L339.6,195.2z"/>
		<path class="st5" d="M367.1,201c-2.1,2.1-1.8,3-0.6,4.2s1.4,6.3-1,7.5c-2.4,1.2-0.1,9.2-7.3,5.7s1.2-17.4,1.2-17.4H367.1z"/>
		<g>
			<g>
				<path class="st27" d="M398.4,214.1"/>
			</g>
			<g>
				<path class="st27" d="M408.5,210.4c0.6-2.6,1.1-9.1,0.4-9.3c-0.8-0.2-2,3.3-2,3.3s0.6-4.2-0.4-4.5c-1-0.3-2.3,3.9-2.3,3.9
					s0.5-4.5-0.5-4.5c-1.1,0-2,4.5-2,4.5s0.3-4-0.5-4c-0.8,0-3.8,6.1-5.1,11.3"/>
			</g>
			<g>
				<path class="st27" d="M406.3,217.3c0,0,4.4-9.9,1.3-11.6c-3-1.7-10-6.4-10.9,6.3C396.3,218.7,406.3,217.3,406.3,217.3z"/>
			</g>
			<path class="st8" d="M378.8,231c-8.5-6-24.1-9.8-24.7,3.5l23.1,17.3c3.5-4.7,7.3-9.1,10.7-13.8C387.9,238,381.1,232.6,378.8,231z
				"/>
			<g>
				<path class="st27" d="M393.3,241.7l-5.4-4.2c-3.3,4.7-7.2,9.1-10.7,13.8l5,3.6c4.5,3.3,25,15.3,24.3-4.5l0.6-41.4l-11.2-0.2
					L393.3,241.7z"/>
			</g>
			<g>
				<path class="st5" d="M401.1,206.7c0.1-1.4,0.4-2.8,0.6-4.3C401.9,203.8,401.6,205.3,401.1,206.7L401.1,206.7z"/>
			</g>
			<g>
				<path class="st5" d="M403.7,206.5c0.1-1.3,0.4-3.4,0.6-4.7C404.4,203.4,404.2,205,403.7,206.5L403.7,206.5z"/>
			</g>
			<g>
				<path class="st5" d="M406.5,206.3c0.1-1.5,0.4-2.9,0.5-4.4C407.2,203.4,406.9,204.9,406.5,206.3L406.5,206.3z"/>
			</g>
		</g>
		<g>
			<path class="st5" d="M375.1,249.8c3.4-4.7,7-9.4,10.8-13.9C382.5,240.7,378.9,245.3,375.1,249.8L375.1,249.8z"/>
		</g>
		<g>
			<g>
				<path class="st27" d="M304.7,220.3"/>
			</g>
			<g>
				<path class="st27" d="M294.2,226.1c-2.3-1.3-7.4-5.4-7-6.1c0.4-0.7,3.7,0.8,3.7,0.8s-3.5-2.4-3-3.4c0.5-1,4.4,1,4.4,1
					s-3.6-2.7-2.9-3.5c0.7-0.8,4.6,1.7,4.6,1.7s-3.1-2.5-2.6-3.1c0.5-0.6,4.8,1.2,9.4,3.8"/>
			</g>
			<g>
				<path class="st27" d="M300.7,229.2c0,0-10.2-3.6-9.4-7c0.8-3.4,4.3-9.9,14.3-2.1C313,231.2,300.7,229.2,300.7,229.2z"/>
			</g>
			<path class="st8" d="M338.8,225.6c5.3-1,14.2-1.9,17.5,2.4l-21.8,21c-4.4-3.6-8.7-7.3-12.6-11.5l10.2-8.7
				C334,227.2,336.3,226.1,338.8,225.6z"/>
			<g>
				<path class="st27" d="M319,240.1l2.9-2.5c3.9,4.2,8.2,7.8,12.6,11.5l-2.6,2.5c-4,3.9-9.7,9.4-14.7,7.1
					c-13.9-6.5-19.7-31.6-19.7-31.6l7.1-8.4L319,240.1z"/>
			</g>
			<polygon class="st5" points="332.6,240 327.9,255.2 330.6,253.3 			"/>
			<g>
				<path class="st5" d="M296.5,218.1c-1.3-0.6-2.6-1.3-3.5-2.5C294.2,216.5,295.4,217.2,296.5,218.1L296.5,218.1z"/>
			</g>
			<g>
				<path class="st5" d="M294.6,219.9c-1.5-0.6-2.8-1.6-3.8-2.8C291.9,217.9,293.6,219.1,294.6,219.9L294.6,219.9z"/>
			</g>
			<g>
				<path class="st5" d="M292.6,221.8c-1.3-0.6-2.6-1.4-3.6-2.6C290.2,220.1,291.5,220.9,292.6,221.8L292.6,221.8z"/>
			</g>
		</g>
		<g>
			<path class="st28" d="M363,426.8l-1,7.8h29.1c0,0-2-3.4-10.1-4.8c-0.3-2.7-0.3-2.7-0.3-2.7L363,426.8z"/>
			<rect x="361.8" y="434.6" class="st29" width="29.3" height="2.5"/>
			<g>
				<path class="st5" d="M362.4,430.9c1.7,0.1,3.6,1.5,3.3,3.4C365.6,432.5,364,431.4,362.4,430.9L362.4,430.9z"/>
			</g>
			<g>
				<path class="st5" d="M378.3,426.5c0.1,1.7,0.1,3.3,0.1,5l-0.1-0.1c2.5,0,5.1,0.2,7.5,1.2c-1.2-0.4-2.5-0.6-3.7-0.8
					c-1.3-0.1-2.5-0.2-3.8-0.2c-0.1,0-0.1-0.1-0.1-0.1C378.2,429.9,378.3,428.2,378.3,426.5L378.3,426.5z"/>
			</g>
			<g>
				<path class="st5" d="M386.7,431.3c-0.6,1-1.1,2-1.4,3.1C385.2,433.2,385.8,432,386.7,431.3L386.7,431.3z"/>
			</g>
		</g>
		<g>
			<path class="st28" d="M332.6,426.6l1,7.8h-29.1c0,0,2-3.4,10.1-4.8c0.3-2.7,0.3-2.7,0.3-2.7L332.6,426.6z"/>
			
				<rect x="304.4" y="434.4" transform="matrix(-1 -1.224647e-16 1.224647e-16 -1 638.0948 871.3312)" class="st29" width="29.3" height="2.5"/>
			<g>
				<path class="st5" d="M333.1,430.7c-1.6,0.5-3.2,1.6-3.3,3.4C329.5,432.2,331.4,430.8,333.1,430.7L333.1,430.7z"/>
			</g>
			<g>
				<path class="st5" d="M317.2,426.3c0.1,1.7,0.1,3.3,0.1,5c0,0.1-0.1,0.1-0.1,0.1c-1.3,0-2.5,0.1-3.8,0.2
					c-1.3,0.1-2.5,0.4-3.7,0.8c2.3-1,5-1.3,7.5-1.2c0,0-0.1,0.1-0.1,0.1C317.1,429.6,317.1,428,317.2,426.3L317.2,426.3z"/>
			</g>
			<g>
				<path class="st5" d="M308.8,431.1c0.9,0.7,1.4,1.9,1.4,3.1C309.9,433,309.4,432,308.8,431.1L308.8,431.1z"/>
			</g>
		</g>
		<polygon class="st30" points="367.3,288.1 384.2,429 357.4,429 345.3,319.9 335.3,428 311.3,427.6 328.5,288.1 		"/>
		<g>
			<path class="st5" d="M383.6,418.4c-8.7,0.2-17.5,0.2-26.2,0C366.1,418.2,374.8,418.2,383.6,418.4L383.6,418.4z"/>
		</g>
		<g>
			<path class="st5" d="M334.9,417.9c-7.9,0.2-15.8,0.2-23.7,0C319.2,417.7,327,417.7,334.9,417.9L334.9,417.9z"/>
		</g>
		<g>
			<path class="st5" d="M362.7,293.7c4,31.1,11.9,93.6,15.7,124.7C374.4,387.4,366.5,324.8,362.7,293.7L362.7,293.7z"/>
		</g>
		<g>
			<path class="st5" d="M362.7,306.2c-6.5,1-11.4-2.3-12.1-8.9c0,0-0.1-2.4-0.1-2.4l0.2,2.4C351.6,303.7,356.5,306.9,362.7,306.2
				L362.7,306.2z"/>
		</g>
		<g>
			<path class="st5" d="M343.4,295.6c0.1,5.5,0.1,11,0.1,16.5c0,0.1-0.1,0.1-0.1,0.1c0,0-3.1,0-3.1,0c-0.1,0-0.1-0.1-0.1-0.1
				c0-5.5,0-11,0.1-16.5c0.1,5.5,0.1,11,0.1,16.5c0,0-0.1-0.1-0.1-0.1l3.1,0l-0.1,0.1C343.3,306.6,343.2,301.1,343.4,295.6
				L343.4,295.6z"/>
		</g>
		<g>
			<path class="st5" d="M333.7,296.4c-0.2,4.2-2.4,9.9-7.4,9.7C331.2,305.9,333.1,300.5,333.7,296.4L333.7,296.4z"/>
		</g>
		<g>
			<path class="st5" d="M345.3,319.9c-3.1-0.9-6.2-1.9-9.1-3.1C339.3,317.7,342.3,318.7,345.3,319.9L345.3,319.9z"/>
		</g>
		<g>
			<polygon class="st27" points="346.6,229.3 351.1,239.1 359.7,229.6 360.2,205.9 347.2,205.6 			"/>
		</g>
		<polygon class="st5" points="349.3,220 346.8,219.9 346.8,221.9 		"/>
		<g>
			<path class="st27" d="M340.2,212.1c-0.1,4.3,3.3,7.7,7.6,7.8l4.5,0.1c4.3,0.1,7.8-3.2,7.9-7.5l0.3-15.1c0.1-4.3-3.3-7.9-7.6-8
				l-4.5-0.1c-4.3-0.1-7.8,3.3-7.9,7.6L340.2,212.1z"/>
		</g>
		<path class="st5" d="M350.2,204.5c0,0.6,0.2,1.1,0.6,1.1c0.3,0,0.6-0.5,0.6-1.1c0-0.6-0.2-1.1-0.6-1.1
			C350.5,203.5,350.2,203.9,350.2,204.5z"/>
		<path class="st5" d="M340.6,204.3c0,0.6,0.2,1.1,0.6,1.1c0.3,0,0.6-0.5,0.6-1.1c0-0.6-0.2-1.1-0.6-1.1
			C340.9,203.2,340.6,203.7,340.6,204.3z"/>
		<g>
			<path class="st5" d="M344.7,203.7c0.1,1.1,0.2,2.2,0,3.4c-0.1,0.4-0.1,0.8-0.5,1.1c-0.2,0.1-0.4,0-0.6,0.1
				c-1.1,0.5-0.3,2.6,0.9,2.7c-0.8-0.1-1.4-0.7-1.6-1.4c-0.2-0.7,0.1-1.7,1-1.6c0.1,0,0.1,0,0.2,0
				C344.8,206.7,344.5,205,344.7,203.7L344.7,203.7z"/>
		</g>
		<g>
			<path class="st5" d="M352.6,203.3c-0.7-0.4-1.4-0.6-2.2-0.4C351,202.3,352.2,202.6,352.6,203.3L352.6,203.3z"/>
		</g>
		<g>
			<path class="st5" d="M342.6,203.1c-0.7-0.4-1.4-0.6-2.2-0.4C341.1,202.1,342.2,202.3,342.6,203.1L342.6,203.1z"/>
		</g>
		<path class="st0" d="M345.4,213c1.4,1.8,3.2-0.8,3.2-0.8C349,211.6,344.1,211.3,345.4,213z"/>
		<path class="st8" d="M361.3,226.8c-0.5-0.2-1.1-0.3-1.6-0.5c-4.3,1.1-12.2,0.8-13.2-1.1c-7.8,0.5-11.6,2.8-11.6,2.8l-12.2,68.2
			l46.9,1.6l2.3-56.1C372.2,234.9,367.8,228.7,361.3,226.8z"/>
		<g>
			<path class="st5" d="M333,237.6c-0.8,5.4-1.7,10.8-2.9,16.2C330.9,248.3,331.9,242.9,333,237.6L333,237.6z"/>
		</g>
		
			<ellipse transform="matrix(2.233632e-02 -0.9998 0.9998 2.233632e-02 134.106 557.033)" class="st31" cx="351.9" cy="209.9" rx="1.1" ry="1.7"/>
		<g>
			<defs>
				<path id="SVGID_00000037666929410544718430000000784199659151551622_" d="M340.2,212.1c-0.1,4.3,3.3,7.7,7.6,7.8l4.5,0.1
					c4.3,0.1,7.8-3.2,7.9-7.5l0.3-15.1c0.1-4.3-3.3-7.9-7.6-8l-4.5-0.1c-4.3-0.1-7.8,3.3-7.9,7.6L340.2,212.1z"/>
			</defs>
			<clipPath id="SVGID_00000094594286350909748620000006162643321525403776_">
				<use xlink:href="#SVGID_00000037666929410544718430000000784199659151551622_"  style="overflow:visible;"/>
			</clipPath>
			<path style="clip-path:url(#SVGID_00000094594286350909748620000006162643321525403776_);fill:#E28386;" d="M338.8,209.7
				c0,0.6,0.8,1.2,1.7,1.2c1,0,1.8-0.5,1.8-1.1c0-0.6-0.8-1.2-1.7-1.2C339.6,208.5,338.8,209,338.8,209.7z"/>
		</g>
		<g>
			<path class="st5" d="M331.6,243.3c-2.6-2.4-5-5-7.4-7.6C326.8,238,329.3,240.6,331.6,243.3L331.6,243.3z"/>
		</g>
		<g>
			<path class="st5" d="M321.1,242.6c-1.9-2.1-3.6-4.3-5.2-6.6C317.9,238.1,319.6,240.3,321.1,242.6L321.1,242.6z"/>
		</g>
		<g>
			<path class="st5" d="M371.9,239.5c0.1,4.2-0.1,8.5-0.4,12.7C371.4,247.9,371.5,243.7,371.9,239.5L371.9,239.5z"/>
		</g>
		<g>
			<path class="st5" d="M393.3,241.7c-0.2,2.7-0.5,5.5-1.1,8.2C392.4,247.1,392.7,244.4,393.3,241.7L393.3,241.7z"/>
		</g>
		<g>
			<path class="st27" d="M397.6,215.1c0,0-5.6-6.1-5.3-7.6c0.3-1.5,5.8,2.7,5.8,2.7"/>
		</g>
		<path class="st2" d="M441.1,209.5h-68.2v-63.2c0-2.8,2.2-5,5-5h63.2V209.5z"/>
		<path class="st2" d="M438.7,133.3h-23.1c-1.4,0-2.5,1.1-2.5,2.5v5.5h28v-5.5C441.1,134.4,440,133.3,438.7,133.3z"/>
		<path class="st3" d="M375.8,206.7v-57.5c0-2.8,2.2-5,5-5h57.5v62.5H375.8z"/>
		<g>
			<rect x="416.6" y="135.7" class="st22" width="4.6" height="4.1"/>
			<line class="st22" x1="433.6" y1="139.8" x2="438.2" y2="135.7"/>
			<line class="st22" x1="433.6" y1="135.7" x2="438.2" y2="139.8"/>
			<line class="st22" x1="425.1" y1="139.8" x2="429.8" y2="139.8"/>
		</g>
		<g>
			<path class="st27" d="M301,217.3c0,0-3.3-2.3-2.8-3.2c0.5-1,6.7,0.5,6.6,6.3"/>
		</g>
		<g>
			<path class="st27" d="M300.9,217.1c0.1,0-3.6,1.3-1,5.3"/>
			<path class="st5" d="M300.9,217.1c-1.4,0.8-2.1,2.3-1.6,3.9c0.1,0.5,0.4,1,0.6,1.4C298.4,220.7,298.4,217.9,300.9,217.1
				L300.9,217.1z"/>
		</g>
		<g>
			<g>
				<polygon class="st33" points="419.5,184.5 414.7,184.5 416,189.4 418.2,189.4 				"/>
				<polygon class="st33" points="418.2,157.6 416,157.6 414.7,162.5 419.5,162.5 				"/>
				<polygon class="st33" points="413.7,184.3 409.5,181.9 408.2,186.7 410.1,187.8 				"/>
				<polygon class="st33" points="426,160.3 424.1,159.2 420.5,162.7 424.7,165.1 				"/>
				<polygon class="st33" points="408.8,181.1 406.3,176.9 402.8,180.5 403.9,182.4 				"/>
				<polygon class="st33" points="431.4,166.5 430.3,164.6 425.5,165.9 427.9,170.1 				"/>
				<polygon class="st33" points="406.1,175.9 406.1,171.1 401.2,172.4 401.2,174.6 				"/>
				<polygon class="st33" points="433,174.6 433,172.4 428.1,171.1 428.1,175.9 				"/>
				<polygon class="st33" points="406.3,170.1 408.8,165.9 403.9,164.6 402.8,166.5 				"/>
				<polygon class="st33" points="430.3,182.4 431.4,180.5 427.9,176.9 425.5,181.1 				"/>
				<polygon class="st33" points="409.5,165.1 413.7,162.7 410.1,159.2 408.2,160.3 				"/>
				<polygon class="st33" points="424.1,187.8 426,186.7 424.7,181.9 420.5,184.3 				"/>
				<g>
					<g>
						<path class="st30" d="M417.1,160.8c-7,0-12.7,5.7-12.7,12.7c0,7,5.7,12.7,12.7,12.7c7,0,12.7-5.7,12.7-12.7
							C429.8,166.5,424.1,160.8,417.1,160.8z M417.1,178.8c-2.9,0-5.3-2.4-5.3-5.3c0-2.9,2.4-5.3,5.3-5.3c2.9,0,5.3,2.4,5.3,5.3
							C422.4,176.4,420,178.8,417.1,178.8z"/>
					</g>
				</g>
				
					<ellipse transform="matrix(0.973 -0.2306 0.2306 0.973 -28.7701 100.8744)" class="st34" cx="417.1" cy="173.5" rx="8.9" ry="8.9"/>
			</g>
			<g>
				<polygon class="st33" points="398,196.2 394.8,196.2 395.7,199.4 397.1,199.4 				"/>
				<polygon class="st33" points="397.1,178.3 395.7,178.3 394.8,181.5 398,181.5 				"/>
				<polygon class="st33" points="394.1,196 391.3,194.4 390.5,197.6 391.7,198.3 				"/>
				<polygon class="st33" points="402.3,180.1 401,179.4 398.7,181.7 401.4,183.3 				"/>
				<polygon class="st33" points="390.8,193.9 389.2,191.1 386.9,193.5 387.6,194.7 				"/>
				<polygon class="st33" points="405.9,184.2 405.2,182.9 401.9,183.8 403.5,186.6 				"/>
				<polygon class="st33" points="389.1,190.4 389.1,187.2 385.8,188.1 385.8,189.6 				"/>
				<polygon class="st33" points="406.9,189.6 406.9,188.1 403.7,187.2 403.7,190.4 				"/>
				<polygon class="st33" points="389.2,186.6 390.8,183.8 387.6,182.9 386.9,184.2 				"/>
				<polygon class="st33" points="405.2,194.7 405.9,193.5 403.5,191.1 401.9,193.9 				"/>
				<polygon class="st33" points="391.3,183.3 394.1,181.7 391.7,179.4 390.5,180.1 				"/>
				<polygon class="st33" points="401,198.3 402.3,197.6 401.4,194.4 398.7,196 				"/>
				<g>
					<g>
						<path class="st30" d="M396.4,180.4c-4.6,0-8.4,3.8-8.4,8.4s3.8,8.4,8.4,8.4s8.4-3.8,8.4-8.4S401,180.4,396.4,180.4z
							 M396.4,191.1c-1.3,0-2.3-1-2.3-2.3s1-2.3,2.3-2.3s2.3,1,2.3,2.3S397.6,191.1,396.4,191.1z"/>
					</g>
				</g>
				<circle class="st34" cx="396.4" cy="188.8" r="5.9"/>
			</g>
			<g>
				<polygon class="st33" points="394.7,171.4 391.1,171.4 392.1,175 393.7,175 				"/>
				<polygon class="st33" points="393.7,151.4 392.1,151.4 391.1,155 394.7,155 				"/>
				<polygon class="st33" points="390.3,171.2 387.2,169.4 386.3,173 387.7,173.8 				"/>
				<polygon class="st33" points="399.5,153.4 398.1,152.6 395.4,155.2 398.5,157 				"/>
				<polygon class="st33" points="386.7,168.9 384.9,165.7 382.3,168.4 383.1,169.8 				"/>
				<polygon class="st33" points="403.5,158 402.7,156.6 399.1,157.5 400.9,160.7 				"/>
				<polygon class="st33" points="384.7,165 384.7,161.4 381.1,162.4 381.1,164 				"/>
				<polygon class="st33" points="404.7,164 404.7,162.4 401.1,161.4 401.1,165 				"/>
				<polygon class="st33" points="384.9,160.7 386.7,157.5 383.1,156.6 382.3,158 				"/>
				<polygon class="st33" points="402.7,169.8 403.5,168.4 400.9,165.7 399.1,168.9 				"/>
				<polygon class="st33" points="387.2,157 390.3,155.2 387.7,152.6 386.3,153.4 				"/>
				<polygon class="st33" points="398.1,173.8 399.5,173 398.5,169.4 395.4,171.2 				"/>
				<g>
					<g>
						<path class="st30" d="M392.9,153.8c-5.2,0-9.4,4.2-9.4,9.4c0,5.2,4.2,9.4,9.4,9.4c5.2,0,9.4-4.2,9.4-9.4
							C402.3,158,398.1,153.8,392.9,153.8z M392.9,165.7c-1.4,0-2.5-1.1-2.5-2.5c0-1.4,1.1-2.5,2.5-2.5c1.4,0,2.5,1.1,2.5,2.5
							C395.4,164.6,394.3,165.7,392.9,165.7z"/>
					</g>
				</g>
				<path class="st34" d="M399.5,163.2c0-3.6-3-6.6-6.6-6.6c-3.6,0-6.6,3-6.6,6.6c0,3.6,3,6.6,6.6,6.6
					C396.5,169.8,399.5,166.8,399.5,163.2z"/>
			</g>
		</g>
		<path class="st5" d="M360.2,207c0,0-1.7-0.2-1.7,2.6c-2,0-2,0-2,0s0.9-6.6,0-7.3c-1.2-1-1.7-5.4-1-6.1c-5.7,1.9-14.8,0.8-14.8,0.8
			s-4.1-1.5-1.8-3.8c2.3-2.3,0-4.4,4-4.4s2.9-4.2,7.9-2.7c5,1.6,7.5-3.1,9,1.5c1.5,4.6,5.6,1.7,4.1,6.2c-1.6,4.5,7.3,4.8,3.2,7.8
			C363,204.6,361.1,202.2,360.2,207z"/>
		<path class="st35" d="M344.4,204.1c0,1.8-1.4,3.2-3.2,3.2c-1.8,0-3.2-1.4-3.2-3.2c0-1.8,1.4-3.2,3.2-3.2
			C343,200.9,344.4,202.3,344.4,204.1z"/>
		<path class="st35" d="M354,204.1c0,1.8-1.4,3.2-3.2,3.2c-1.8,0-3.2-1.4-3.2-3.2c0-1.8,1.4-3.2,3.2-3.2
			C352.6,200.9,354,202.3,354,204.1z"/>
		<g>
			<path class="st27" d="M358.5,209.1c0,1.8,1.5,3.3,3.3,3.4c1.9,0,3.4-1.4,3.5-3.2c0-1.8-1.5-3.3-3.3-3.4
				C360.1,205.9,358.6,207.3,358.5,209.1z"/>
		</g>
		<g>
			<path class="st5" d="M362.2,211.3c0.9-0.8,0.1-2.4-1-2.4c-0.1,0-0.1-0.1-0.1-0.1c0.1-0.6,0.5-1.2,1.1-1.5
				c0.6-0.3,1.3-0.2,1.7,0.1c-1.1-0.5-2.4,0.2-2.5,1.4c0,0-0.1-0.2-0.1-0.2C362.5,208.7,363.4,210.5,362.2,211.3L362.2,211.3z"/>
		</g>
		<g>
			<path class="st5" d="M340.5,198.2c2.6,0.3,5.2,0.3,7.8,0.2c2.5-0.2,5.3-0.5,7.2-2.3c0.1-0.1,0.2,0,0.2,0.1
				c-0.5,1.2-0.8,2.5-0.7,3.8c0.1,0.4,0.1,0.9,0.4,1.2c-0.3-0.3-0.4-0.8-0.5-1.2c-0.2-1.3,0.1-2.7,0.6-3.9c0,0,0.2,0.1,0.2,0.1
				c-2,1.8-4.8,2.2-7.4,2.4C345.6,198.8,343,198.6,340.5,198.2L340.5,198.2z"/>
		</g>
		<g>
			<path class="st5" d="M346,188.7c-1.5,0.2-3.1,0-4.4-0.6C343,188.4,344.5,188.6,346,188.7L346,188.7z"/>
		</g>
		<line class="st35" x1="344.4" y1="204.1" x2="347.7" y2="204.1"/>
		<line class="st35" x1="354" y1="204.1" x2="360.9" y2="206.1"/>
		<path class="st5" d="M371.6,243.3c0.4,0.4,9.2,10.9,9.2,10.9l-9.3-6.4L371.6,243.3z"/>
		<g>
			<path class="st27" d="M395.7,213.5c0,0-4.3-4.9-3.2-7.1c1.1-2.2,4.6,1.7,4.6,1.7s6.3,0.5,6.9,5.4"/>
		</g>
		<g>
			<path class="st5" d="M396.6,209.3c1.8-1.2,4.6-0.9,6,0.9c0.2,0.2,0.4,0.5,0.5,0.8C401.6,208.9,398.9,208.3,396.6,209.3
				L396.6,209.3z"/>
		</g>
	</g>
	<g>
		<path class="st5" d="M33.7,436.9c135.5-0.5,287.6-0.5,423.1,0C321.2,437.4,169.2,437.4,33.7,436.9L33.7,436.9z"/>
	</g>
	<polygon class="st36" points="167.3,299 170,297.1 203.1,297.1 200.4,299 	"/>
</g>
<g id="DESIGNED_BY_FREEPIK">
</g>
</svg>
