<svg width="210" height="40" viewBox="0 0 210 40" fill="none" xmlns="http://www.w3.org/2000/svg">
<path d="M79.0537 18.6193C78.6791 13.3174 76.2442 8.49411 72.1611 5.03314C68.49 1.90354 63.77 0.173049 58.9002 0.173049C53.0564 0.173049 47.5123 2.63991 43.6539 6.98454L40.7695 10.2614C40.32 10.7769 40.32 11.5869 40.7695 12.1024L45.2647 17.1834L46.5383 18.6193C46.9879 19.1348 47.7371 19.1348 48.1866 18.6193L52.0824 14.201C53.8056 12.2496 56.278 11.1451 58.9002 11.1451C61.0729 11.1451 63.1706 11.9183 64.8189 13.3174C68.5649 16.5206 68.977 22.1539 65.7179 25.8358C63.9948 27.7872 61.5224 28.8918 58.9002 28.8918C56.7275 28.8918 54.6297 28.1186 52.9815 26.7194C52.8316 26.609 52.7193 26.4617 52.5694 26.3513C52.3447 26.1303 51.8202 25.5412 51.3707 25.0258C50.0596 23.553 47.6247 20.7916 47.6247 20.7916C47.6247 20.7916 47.4748 20.6075 47.2876 20.4234C47.1003 20.2025 46.5758 19.6134 46.1263 19.1348C45.5269 18.4352 44.7777 17.6252 44.7777 17.6252L40.3574 12.6178C39.9079 12.1024 39.1587 11.2923 38.7092 10.7769C37.5105 9.41458 35.3752 7.02136 35.3752 7.02136C34.7759 6.3218 34.1016 5.69588 33.3899 5.06996C29.7562 1.86672 25.0737 0.13623 20.2039 0.13623C14.3601 0.13623 8.77856 2.60309 4.95763 6.94772C1.39892 10.961 -0.324243 16.042 0.050358 21.3439C0.424959 26.6458 2.85987 31.4691 6.94302 34.9669C10.6141 38.0965 15.3341 39.8638 20.2039 39.8638C26.0477 39.8638 31.5918 37.3969 35.4502 33.0523L38.3346 29.7754C38.7841 29.2599 38.7841 28.4499 38.3346 27.9345L36.2368 25.5781L32.5657 21.4175C32.1162 20.9021 31.367 20.9021 30.9175 21.4175L26.9842 25.8358C25.261 27.7504 22.7886 28.8549 20.1664 28.8549C17.9937 28.8549 15.896 28.0817 14.2477 26.6826C12.4122 25.1362 11.3258 22.9639 11.176 20.6075C11.0262 18.2143 11.7754 15.9315 13.3862 14.1642C15.1093 12.2128 17.5817 11.1082 20.2039 11.1082C22.3766 11.1082 24.4743 11.8814 26.1226 13.2806C26.4597 13.5751 26.722 13.8697 27.0216 14.1642L28.52 15.8579C28.9696 16.3733 29.7188 17.1834 30.1683 17.6988C30.9924 18.6193 32.1162 19.908 32.1162 19.908C32.1162 19.908 32.1537 19.908 32.1537 19.9448C32.1537 19.9816 32.5657 20.3866 33.0152 20.9021C34.3264 22.3748 36.7613 25.1362 36.7613 25.1362L39.6082 28.3395L43.7663 33.0155C44.3657 33.6782 45.0025 34.3409 45.7517 34.9669C49.4228 38.0965 54.1427 39.827 59.0126 39.827C64.8563 39.827 70.4004 37.3601 74.2588 33.0155C77.7052 29.0022 79.4283 23.9212 79.0537 18.6193ZM58.3757 1.68262C55.791 1.94035 53.3935 2.56627 51.2958 3.48675C49.198 4.40722 47.1377 5.76951 45.2272 7.53682C45.1898 7.57364 45.1523 7.57364 45.1149 7.57364C45.0774 7.57364 45.0399 7.57364 45.0025 7.53682C44.9276 7.5 44.9276 7.38954 44.965 7.31591C46.3885 5.32769 48.4114 3.70766 50.8463 2.60309C53.2437 1.53535 55.9034 1.09352 58.3008 1.35125C58.3757 1.35125 58.4507 1.42489 58.4507 1.49853C58.5256 1.60898 58.4507 1.68262 58.3757 1.68262ZM19.8668 1.68262C17.282 1.94035 14.8846 2.56627 12.7868 3.48675C10.689 4.40722 8.62872 5.76951 6.75572 7.53682C6.71826 7.57364 6.6808 7.57364 6.64334 7.57364C6.60588 7.57364 6.56842 7.57364 6.53096 7.53682C6.45604 7.5 6.45604 7.38954 6.4935 7.31591C7.91698 5.32769 9.93982 3.70766 12.3747 2.60309C14.7722 1.53535 17.4318 1.09352 19.8668 1.35125C19.9417 1.35125 20.0166 1.42489 20.0166 1.49853C20.0166 1.60898 19.9417 1.68262 19.8668 1.68262Z" fill="url(#paint0_linear_197_4473)"/>
<path d="M88.1565 4.18622C88.1565 4.95941 87.8943 5.58533 87.3324 6.13762C86.7705 6.6899 86.1337 6.94763 85.347 6.94763C84.5604 6.94763 83.9235 6.6899 83.3616 6.13762C82.7997 5.58533 82.5375 4.95941 82.5375 4.18622C82.5375 3.41302 82.7997 2.7871 83.3616 2.23482C83.9235 1.68254 84.5604 1.4248 85.347 1.4248C86.1337 1.4248 86.7705 1.68254 87.3324 2.23482C87.8568 2.75028 88.1565 3.41302 88.1565 4.18622ZM87.3324 11.3291V32.1317H83.3616V11.3291H87.3324Z" fill="black"/>
<path d="M90.3667 11.3292H94.1501V14.2011H94.3374C94.9368 13.1701 95.8733 12.3233 97.1095 11.6606C98.3457 10.9978 99.6568 10.6296 101.005 10.6296C103.59 10.6296 105.575 11.366 106.999 12.802C108.385 14.2747 109.097 16.3366 109.097 19.0243V32.095H105.126V19.3189C105.051 15.9316 103.29 14.2379 99.919 14.2379C98.3457 14.2379 96.9971 14.8638 95.9482 16.1156C94.8994 17.3675 94.3374 18.8771 94.3374 20.6444V32.1318H90.3667V11.3292Z" fill="black"/>
<path d="M127.565 26.388C127.565 28.1921 126.74 29.7385 125.13 30.9903C123.519 32.2422 121.496 32.8681 119.024 32.8681C116.888 32.8681 115.015 32.3158 113.405 31.248C111.794 30.1435 110.633 28.7075 109.958 26.9402L113.517 25.4675C114.041 26.7193 114.791 27.6766 115.802 28.3762C116.814 29.0757 117.9 29.4071 119.061 29.4071C120.335 29.4071 121.384 29.1494 122.245 28.5971C123.107 28.0448 123.519 27.4189 123.519 26.6825C123.519 25.357 122.47 24.3629 120.41 23.737L116.776 22.8533C112.655 21.8224 110.595 19.871 110.595 16.9991C110.595 15.1214 111.382 13.575 112.955 12.4336C114.528 11.2922 116.514 10.7031 118.986 10.7031C120.859 10.7031 122.545 11.145 124.043 12.0286C125.542 12.9123 126.628 14.0905 127.227 15.5632L123.669 16.9991C123.257 16.1155 122.62 15.4528 121.721 14.9373C120.822 14.4586 119.81 14.2009 118.687 14.2009C117.638 14.2009 116.739 14.4586 115.914 14.9741C115.09 15.4896 114.678 16.1155 114.678 16.8519C114.678 18.0301 115.802 18.8769 118.087 19.3924L121.271 20.2024C125.467 21.1597 127.565 23.2215 127.565 26.388Z" fill="black"/>
<path d="M137.042 32.5C135.319 32.5 133.895 31.9846 132.734 30.9168C131.573 29.8491 131.011 28.4131 130.973 26.5354V14.9006H127.265V11.3292H130.973V4.99634H134.944V11.366H140.114V14.9374H134.944V25.2835C134.944 26.6826 135.206 27.6031 135.768 28.1186C136.33 28.5972 136.93 28.855 137.641 28.855C137.941 28.855 138.278 28.8181 138.578 28.7445C138.877 28.6709 139.177 28.5972 139.402 28.4499L140.638 31.9477C139.627 32.3159 138.428 32.5 137.042 32.5Z" fill="black"/>
<path d="M149.404 10.6665C152.326 10.6665 154.648 11.4397 156.371 12.9861C158.057 14.5325 158.919 16.6312 158.919 19.3189V32.1319H155.135V29.26H154.948C153.3 31.6532 151.127 32.8315 148.392 32.8315C146.07 32.8315 144.122 32.1687 142.549 30.8064C140.975 29.4441 140.189 27.7505 140.189 25.7254C140.189 23.5899 141.013 21.8594 142.661 20.5708C144.309 19.2821 146.519 18.6562 149.291 18.6562C151.651 18.6562 153.599 19.098 155.135 19.9449V19.0612C155.135 17.6989 154.573 16.5575 153.487 15.6002C152.401 14.6429 151.127 14.1643 149.629 14.1643C147.418 14.1643 145.658 15.0848 144.347 16.9257L140.863 14.7534C142.773 12.0288 145.62 10.6665 149.404 10.6665ZM144.234 25.7622C144.234 26.7932 144.684 27.64 145.545 28.3027C146.407 28.9655 147.456 29.3337 148.617 29.3337C150.303 29.3337 151.764 28.7077 153.075 27.4927C154.386 26.2777 155.023 24.8418 155.023 23.2217C153.787 22.2644 152.063 21.7858 149.853 21.7858C148.243 21.7858 146.894 22.154 145.808 22.9272C144.796 23.7004 144.234 24.6577 144.234 25.7622Z" fill="black"/>
<path d="M161.915 1.75635H172.367C174.802 1.75635 177.012 2.12454 178.96 2.86091C180.908 3.59729 182.593 4.62822 183.979 5.99052C185.366 7.35281 186.414 8.93602 187.164 10.8138C187.913 12.6915 188.25 14.7166 188.25 16.9625C188.25 19.2085 187.875 21.3072 187.164 23.1481C186.414 25.0259 185.366 26.6091 183.979 27.9345C182.593 29.26 180.945 30.291 178.96 31.0273C177.012 31.7637 174.802 32.1319 172.367 32.1319H161.915V1.75635ZM172.105 26.7195C173.79 26.7195 175.289 26.4986 176.6 26.02C177.911 25.5413 178.96 24.8786 179.821 24.0318C180.683 23.1849 181.32 22.154 181.769 20.939C182.219 19.7239 182.406 18.3985 182.406 16.9257C182.406 15.453 182.181 14.1275 181.769 12.9125C181.32 11.6974 180.683 10.6665 179.821 9.81968C178.96 8.97284 177.873 8.3101 176.6 7.83146C175.289 7.35281 173.79 7.1319 172.105 7.1319H167.759V26.6459H172.105V26.7195Z" fill="#6659E3"/>
<path d="M209.49 27.1246C208.516 28.8182 207.205 30.1805 205.519 31.2483C203.871 32.2792 201.848 32.8315 199.451 32.8315C197.84 32.8315 196.341 32.5738 194.993 32.0215C193.607 31.4692 192.445 30.696 191.434 29.7019C190.423 28.7078 189.636 27.5296 189.074 26.2041C188.512 24.8786 188.25 23.3691 188.25 21.7858C188.25 20.2763 188.512 18.8772 189.074 17.5149C189.636 16.1894 190.385 15.0112 191.359 13.9802C192.333 12.9861 193.494 12.1761 194.843 11.587C196.191 10.9979 197.652 10.7034 199.263 10.7034C200.949 10.7034 202.485 10.9611 203.796 11.5134C205.107 12.0657 206.231 12.8389 207.13 13.7962C208.029 14.7903 208.703 15.9316 209.153 17.2571C209.602 18.5826 209.827 20.0185 209.827 21.6017C209.827 21.7858 209.827 21.9699 209.827 22.1172C209.79 22.3013 209.789 22.4486 209.789 22.5959C209.752 22.7431 209.752 22.8904 209.752 23.0745H193.832C193.944 23.9213 194.169 24.6577 194.543 25.2468C194.918 25.8727 195.367 26.3514 195.892 26.7564C196.416 27.1614 197.016 27.4559 197.652 27.64C198.289 27.8241 198.926 27.9346 199.6 27.9346C200.911 27.9346 201.96 27.64 202.822 27.0509C203.684 26.4618 204.358 25.7255 204.845 24.8786L209.49 27.1246ZM204.358 19.0612C204.32 18.6931 204.208 18.2881 203.983 17.8462C203.758 17.4044 203.459 16.9626 203.047 16.5576C202.635 16.1526 202.11 15.8212 201.511 15.5635C200.874 15.3057 200.162 15.1953 199.301 15.1953C198.102 15.1953 197.016 15.5266 196.117 16.2262C195.18 16.8889 194.543 17.8462 194.169 19.0612H204.358Z" fill="#6659E3"/>
<defs>
<linearGradient id="paint0_linear_197_4473" x1="27.7191" y1="-8.70549" x2="56.558" y2="63.7178" gradientUnits="userSpaceOnUse">
<stop offset="0.2191" stop-color="#2E3191"/>
<stop offset="0.4843" stop-color="#BE1E2D"/>
<stop offset="0.761" stop-color="#D6DE23"/>
<stop offset="1" stop-color="#8BC53F"/>
</linearGradient>
</defs>
</svg>
